/* XPM */
static char *result[] = {
/* columns rows colors chars-per-pixel */
"64 64 210 2 ",
"   c #060606",
".  c #0C0C0C",
"X  c #0B0605",
"o  c #150401",
"O  c #140907",
"+  c #140D0C",
"@  c #1C0C0C",
"#  c #1C0501",
"$  c #10100E",
"%  c #1E1806",
"&  c #0F0E10",
"*  c #110F10",
"=  c #0F1110",
"-  c #121212",
";  c #1C1313",
":  c #1A1915",
">  c #1B1B1B",
",  c #230E0C",
"<  c #2C0D0C",
"1  c #250803",
"2  c #330100",
"3  c #3B0100",
"4  c #340D0D",
"5  c #3D0B0C",
"6  c #390904",
"7  c #29120C",
"8  c #36110B",
"9  c #240E10",
"0  c #231313",
"q  c #241C1B",
"w  c #2B1B1B",
"e  c #2A1716",
"r  c #331313",
"t  c #381515",
"y  c #1E201F",
"u  c #2E2908",
"i  c #23211F",
"p  c #272618",
"a  c #383513",
"s  c #3D3703",
"d  c #1F1F21",
"f  c #241E20",
"g  c #331F20",
"h  c #242424",
"j  c #282627",
"k  c #262827",
"l  c #262928",
"z  c #2D2D2D",
"x  c #2B2926",
"c  c #332C26",
"v  c #34302C",
"b  c #3E332D",
"n  c #2E2E30",
"m  c #312F30",
"M  c #313131",
"N  c #3B3B3B",
"B  c #450501",
"V  c #4D0301",
"C  c #420C0B",
"Z  c #4D0D0D",
"A  c #440D02",
"S  c #530102",
"D  c #5C0301",
"F  c #590C03",
"G  c #57050A",
"H  c #540C0D",
"J  c #5B0C0C",
"K  c #550B02",
"L  c #480F11",
"P  c #540E10",
"I  c #421211",
"U  c #4D1011",
"Y  c #5C1213",
"T  c #511112",
"R  c #4B1207",
"E  c #630201",
"W  c #6B0201",
"Q  c #640901",
"!  c #6B0B03",
"~  c #640A0A",
"^  c #6C0B0B",
"/  c #69020B",
"(  c #730201",
")  c #7B0101",
"_  c #720B03",
"`  c #72050A",
"'  c #7C050B",
"]  c #740A0A",
"[  c #7C090B",
"{  c #7C0904",
"}  c #620D16",
"|  c #7D0A15",
" . c #671110",
".. c #67120F",
"X. c #403E0A",
"o. c #443C34",
"O. c #40362D",
"+. c #564F07",
"@. c #645C01",
"#. c #6E6500",
"$. c #6D650F",
"%. c #52463C",
"&. c #4C433A",
"*. c #7B7539",
"=. c #434343",
"-. c #4C4C4C",
";. c #545454",
":. c #5D5D5D",
">. c #585657",
",. c #6A5C4D",
"<. c #625549",
"1. c #796758",
"2. c #6A6054",
"3. c #6C6D6C",
"4. c #646464",
"5. c #737061",
"6. c #7C7C7D",
"7. c #727272",
"8. c #840201",
"9. c #8C0201",
"0. c #830A03",
"q. c #8C0904",
"w. c #84040A",
"e. c #8D040B",
"r. c #840A0A",
"t. c #8C0A0B",
"y. c #940202",
"u. c #9C0302",
"i. c #950903",
"p. c #9B0A03",
"a. c #93050B",
"s. c #9C040A",
"d. c #940A0B",
"f. c #9C0A0B",
"g. c #841109",
"h. c #890A15",
"j. c #950814",
"k. c #94171B",
"l. c #A40202",
"z. c #AC0202",
"x. c #A30903",
"c. c #AB0906",
"v. c #A5030A",
"b. c #AC040A",
"n. c #A30A0A",
"m. c #AC090A",
"M. c #B30102",
"N. c #BB0103",
"B. c #B50905",
"V. c #BC0904",
"C. c #B3030A",
"Z. c #BA020A",
"A. c #B2090B",
"S. c #B80808",
"D. c #A40B12",
"F. c #AA0716",
"G. c #B40711",
"H. c #B90414",
"J. c #AA1012",
"K. c #C20003",
"L. c #C3000B",
"P. c #CC000A",
"I. c #CC0000",
"U. c #D20008",
"Y. c #C50413",
"T. c #DE0011",
"R. c #857905",
"E. c #84725D",
"W. c #8E7C69",
"Q. c #968A00",
"!. c #A69601",
"~. c #B0A100",
"^. c #C3AF00",
"/. c #D6C200",
"(. c #998978",
"). c #9A846D",
"_. c #A1907C",
"`. c #AB9179",
"'. c #7F8180",
"]. c #858584",
"[. c #8C8C8C",
"{. c #999999",
"}. c #AE9B8A",
"|. c #B69E86",
" X c #B8A38D",
".X c #BDA994",
"XX c #A7A7A7",
"oX c #B6B6B6",
"OX c #BCBCBB",
"+X c #CAAC8E",
"@X c #C8AE94",
"#X c #CCB298",
"$X c #D6B898",
"%X c #D9BFA4",
"&X c #DEC4AB",
"*X c #E5CBAE",
"=X c #E3C7AA",
"-X c #E9CEB3",
";X c #E5CCB2",
":X c #EDD2B6",
">X c #EFD5B8",
",X c #F1D6B9",
"<X c #F4D9BC",
"1X c #C1C1C1",
"2X c #C9C9C9",
"3X c #D9D9D8",
"4X c #E4E4E4",
"5X c gray93",
"6X c #FEFEFE",
"7X c #F3F3F3",
/* pixels */
"q.L.N.i.N.N.l.x.Z.z.l.x.B.z.l.x.N.M.z.c.z.M.Z.N.z.M.C.N.N.N.M.S.z.N.N.N.K.N.n.i.N.y.x.x.y.9.9.y.N.N.z.N.M.M.N.N.z.z.M.z.M.M.M.M.",
"8.L.N.u.N.K.l.l.N.z.l.z.z.z.l.l.N.M.d.l.B.z.z.z.z.b.z.M.M.M.z.M.B.z.z.l.z.z.u.) B.5 J c.x.u.y.s.N.M.M.z.M.M.N.N.N.N.M.M.M.M.M.M.",
"9.L.Z.p.Z.K.l.l.N.z.l.M.N.N.M.z.z.z.t r.M.b.l.y.l.l.z.M.M.M.M.z.z.u.y.y.l.z.u.9.q.@ ; e.C.b.v.a.z.z.z.z.M.M.M.M.N.N.N.N.M.M.M.M.",
"q.L.S.i.M.N.z.B.c.l.u.z.M.M.N.M.l.t.: U C.z.y.8.y.u.l.c.M.M.N.N.N.l.y.u.l.A.c.l.^ & > Z L.C.v.u.l.l.z.z.z.M.M.M.M.M.M.M.N.M.M.M.",
"q.L.z.8.l.N.z.B.u.y.9.u.c.M.z.l.l.~ : e s.z.y.8.8.y.x.z.l.l.l.B.K.S.c.l.z.N.C.M.C = h e v.Z.l.y.u.l.z.z.z.M.c.z.z.C.C.Z.M.M.M.M.",
"0.N.y.( y.z.l.M.u.y.8.y.c.M.z.l.l.C : d ^ l.i.y.y.x.t.Y t r r r I U ^ e.z.N.C.s., = h h ' z.z.u.u.x.c.l.z.c.l.u.u.l.b.M.N.z.M.M.",
"0.z.y.W y.b.l.z.z.l.u.l.z.N.M.c.y., - j L l.l.v.[ C q l z z z z z l h w t [ n.] + - f j H l.l.l.u.b.c.z.l.l.p.9.8.a.n.C.N.M.M.M.",
"0.z.9.! d.A.l.z.N.N.B.S.N.N.N.C.q.; - x w 0.' 5 - k z z m z z z z z m z z h I 4 - - d z t p.c.z.u.z.C.z.l.l.i.8.) 9.f.C.M.V.M.M.",
"y.u.l.l.l.u.u.s.l.z.z.z.M.M.N.M.[ & - k k < + > l z z z z z M z z n n z z z -   - - y M e q.l.M.N.i.t.v.s.) 0.c.M.z.l.u.l.x.l.u.",
"i.l.z.z.z.l.l.l.z.z.z.z.M.N.M.M.~ = - y z * - z z M z z M z z z z n z v z z : . - - y z q { u.M.z.9.9.u.u.8.8.l.z.l.l.u.u.x.v.b.",
"l.z.z.B.M.z.l.l.z.z.z.M.M.M.N.M.H . - : j > h M M z z M z z M z v z n n z n y : y i z M q ` y.u.M.u.a.v.u.9.9.l.l.l.u.u.u.v.v.z.",
"z.z.z.z.z.z.l.z.l.z.l.z.M.M.M.M.Z . - - - > z z M z z z M z z z n z z n z n z z n n z z q ] 9.y.z.n.v.b.b.x.x.l.x.x.i.u.u.l.l.l.",
"z.z.l.l.l.z.z.z.l.z.z.z.z.C.M.M.C $ - - $ h n z z z z M z z z z n z n z M z M z n z M z i R e.q.u.v.z.z.z.z.v.y.y.y.u.x.l.z.l.z.",
"z.l.u.y.a.u.l.z.l.l.l.z.z.M.M.s., - - - : z z n z z z z M z M z z n n v n z z z z z z z n > J ) y.z.M.l.l.M.l.9.9.y.u.v.c.B.M.A.",
"z.u.9.8.8.y.l.l.x.z.l.z.z.z.M.H = - - $ y z z v M z z M z z z M z z z z z M z z z z z z n z 0 W 0.z.M.l.z.N.M.8.9.y.l.z.M.M.N.Z.",
"l.u.8.) 8.9.i.l.l.l.z.z.z.M.a.O = - - - y z z z z z z z M z z z n z n z z z M z z M z M n v i H 0.z.N.l.l.N.z.) y.p.z.z.z.M.z.N.",
"v.0.q.Z.b._ D / l.l.l.l.z.N.` . - - - - h z n n z z z z z z z z n n z n z z M z M z z z z n x 5 y.u.u.z.b.M.Z.Z.x.l.z.m.0.D W e.",
"l.9.9.M.M.) W ' z.z.l.l.z.B.C . . - - - k z n n z M M z z M z M z v z z z z z z n z z z z n M e q.u.l.l.z.M.M.C.z.N.N.S.p.8.9.D.",
"z.y.u.M.C.a.w.e.M.z.z.l.x.n.7 - . . . - l v z z z z z z z z M z z z n n M z z z z n z z n l k q 8.l.l.l.l.l.z.z.N.N.N.N.z.l.b.G.",
"b.l.l.b.b.y.q.e.x.l.l.p.u.y., - - 4.h . l z z n z z M z z z z z n z n n z z M z n n n z y h x > r.l.l.u.l.u.l.x.N.N.N.N.N.M.N.M.",
"n.l.u.u.y.y.9.9.y.y.i.y.u.y.@ - - oXOX-.> z z z n z z z n z z z z z z v z z z z z n h x '.7.j i [ z.z.l.u.l.l.l.x.c.c.M.N.N.Z.z.",
"i.l.u.q.q.u.u.y.9.9.y.y.u.d.; - - oX6X4X].z x z z M M z z z n z z n z n M z M z x h :.OX7X6.h i { z.z.z.z.l.z.l.9.9.y.l.z.N.M.l.",
"l.M.z.d.d.C.M.x.l.u.u.u.u.9.@ - . {.6X6X6X1X>.l z z n n z z n n z z n z z n x k -.XX5X6X6X4.k f r.z.M.z.z.M.z.z.) ) 8.u.N.N.N.x.",
"l.N.N.d.d.Z.K.l.Z.Z.C.l.y.8.9 - . =.3X6X6X6X4X].n x z v z z v z z z n z M l M [.4X6X6X6X3XN x e y.z.z.M.N.M.N.M.8.) r.n.N.K.N.B.",
"u.l.M.z.z.l.z.M.B.N.C.e.D A , = - - M [.3X7X6X6XoX=.j n n n z z M z n z l :.2X6X6X6X7X1X:.l n e n.M.M.M.z.l.z.z.M.z.z.M.V.N.M.z.",
"y.l.z.M.z.z.z.M.x.N.b.y.W D 8 = - - = & > ;.6.XX2XOX>.k z z z n z z x M [.3X3X2XXX(.-.n l n x U m.z.M.b.l.i.p.m.M.z.l.z.M.N.M.l.",
"u.l.M.z.l.x.z.M.l.z.z.u.) _ J . - - - - - d k k z N =.> l l l h l z y N ;.=.N z h l x n n M l ] l.l.z.c.i.8.8.d.m.l.u.l.z.N.M.z.",
"y.l.z.M.z.z.z.M.M.N.N.l.y.8.[ @ - - - - - > z z m z z h l <.W.).,.v i l z x z z z z M n n n x y.M.z.z.c.i.) ) e.c.u.y.l.M.N.N.z.",
"y.l.z.M.z.l.z.V.N.N.N.M.u.9.0.5 = - - - = - l n n z h %. X*X,X>X-X@X1.c k z z z z n z z n z Y z.V.N.M.B.n.9.8.y.l.u.y.l.B.N.N.N.",
"u.l.M.z.z.l.z.M.z.z.z.B.z.u.y.^ + - - - - - f z z h ,.&X,X,X,X,X,X,X:X X%.k z n z z v n n w d.z.M.N.M.M.m.v.l.v.l.y.9.f.b.N.N.N.",
"y.l.M.M.z.l.z.M.w.8.y.l.M.M.z.x.H . - - - - - l h E.=X,X,X:X=X&X:X,X,X,X$X,.h z z z n z h P B.M.u.z.z.l.u.x.b.z.s.8.) 0.y.u.u.n.",
"y.l.z.M.z.l.z.M.D / ) p.Z.K.K.M.F.4 + - - - - - ,.=X,X,X:X.X@X XK.=K,X,X,X$X<.h z z n k 4 q.z.N.9.n.m.l.u.i.c.M.e.) W W ) ) 9.f.",
"V b.i.N.M.l.T.n.z.l.8.) 0.f.C.N.N.i.< - - - + x @X,X,X,X,X-X,X,X:X;X,X,X,X,X#Xo.x n j r y.c.z.z.l.s.y.9.9.u.l.z.u.l.i.0.p.N.z.q.",
"V b.i.x.l.y.Y.r.N.C.y.8.9.y.u.z.M.M.t.4 & + . E.$X*X,X,X,X,X,X,X,X>X,X,X,X,X-X).h x 4 q.l.z.M.z.b.l.u.y.y.l.z.N.C.y.9.x.B.z.u.n.",
"/ b.n.p.9.) w.B M.A.v.y.u.y.u.u.N.z.z.y.5   O.+X$X$X-X,X,X,X,X,X,X,X,X,X,X,X,X#Xc C y.z.z.z.z.z.l.l.u.u.u.z.z.M.C.8.) N.L.y.9.v.",
"y.C.z.i.8.( S o y.p.l.u.b.l.l.m.N.N.z.z.s.Z O._.+X$X$X*X,X,X<X<X,X,X,X,X<X-X}.&.I l.l.l.z.z.z.z.z.z.z.z.l.z.z.z.b.y.u.C.N.y.8.s.",
"z.N.N.u.d.j.H o W 8.y.v.b.Z.M.V.S.M.z.z.l.r.. - o.E.`.+X=X:X<X<X<X<X,X=X_.o.+   Z z.l.l.z.z.z.z.C.M.C.c.b.z.z.l.q.b.H.v.y.u.l.d.",
"L.M.K.u.v.H.G # ( 0.t.y.b.M.N.N.c.l.l.v.x.Y > - X X ; c &.2.W.(.}.W.2.v .   : - 4 p.l.z.l.z.M.M.N.M.M.z.l.u.u.u.) b.H.r.) u.G.n.",
"M.l.K.y.u.Z.V # 8.y.9.8.y.x.z.M.y.u.y.u.d.r z : > > . . . . d : : &   - > > d h > ~ z.l.z.z.z.z.M.z.z.l.l.u.y.y.8.y.y.) ( 9.v.Z.",
"u.9.N.9.y.Y.D 8 l.s.8.) 9.y.i.x.8.9.9.u. .h n > z z - q : . = . & &   h z l j z x 0 0.z.z.x.z.z.N.B.z.z.z.p.s.f.x.8.( 8.[ ! u.U.",
"l.K.z.l.V.p.` 8.y.u.c.l.8.) 8.a.l.l.c.n.r z n d z z - x : . d h d d   > n z z z z k H N.M.z.c.c.K.N.N.K.Z.G.t.D D E ) l.B.M.z.M.",
"z.K.z.l.N.z.8.u.p.l.z.v.y.9.8.9.l.u.l.[ h n z z z n y l . = k z z y - & z n n z n z r z.M.M.z.z.z.z.z.M.M.b.9.( ^ ( 9.m.B.M.M.S.",
"x.L.z.l.K.M.y.C.l.z.C.b.s.y.9.9.l.x.z.T x z z z n z z y : =.3.h >.6.N - l z x n z z q u.N.M.M.z.z.l.x.l.z.C.l.y.' w.u.b.N.z.z.z.",
"q.z.l.y.N.Z.u.Z.l.z.M.z.l.a.y.a.M.z.z.r z n z z z z z : y 3.XX4.[.XX>.> y z > z n n ; d.Z.M.z.z.N.M.x.l.z.M.M.b.9.y.s.b.z.l.l.z.",
"W s.i.9.N.M.i.N.z.N.N.M.u.y.s.s.N.M.y., z z z z z z z = x 7.{.].].{.3.y > n - l z z ; 9.M.M.z.z.I.K.z.z.z.z.M.z.a.s.b.c.z.l.z.m.",
"D e.t.9.z.z.i.M.z.N.K.M.l.y.u.l.c.z.t.- z z z z y z y . c 5.E.Q.R.5.3.h : M : i M z ; 9.z.z.l.u.P.N.z.z.M.z.z.l.y.u.l.l.l.l.l.b.",
"E j.t.9.M.N.l.N.z.V.N.M.l.u.u.y.x.l.] - z z z n y l y u +.!.!.^.~.R.$.a > n > - z z ; d.b.u.y.y.m.u.y.l.C.M.l.v.y.u.u.u.l.l.l.l.",
"/ j.d.9.N.N.z.K.z.z.N.M.b.f.u.y.9.8.J & x z n z : z - s @.Q.R.^.Q.@.$.#.p n y = x z @ a.l.s.d.i.0.W ) y.b.C.l.x.f.s.l.u.l.l.l.b.",
"M.M.M.M.M.z.l.l.l.b.p.9.9.f.n.u.) 8.... h n n z - z = . y p X.X.u : a % - M h   j z , u.z.n.y.8.j.S 2 S j.Z.M.u.p.M.N.n.v.M.z.t.",
"z.M.z.M.z.z.l.l.l.l.u.9.y.p.f.e.q.z.t.& > z n x = x . . > z z k l n h = - M h . y x @ p.c.m.s.[ h.D B D a.Z.M.u.p.M.N.p.p.z.l.t.",
"z.M.M.M.N.z.z.l.M.z.u.u.y.u.f.U 8 P Z . > z z j - l . . > z z z M M h . > M l . > z + G ^ Y e H e.E V W s.C.z.u.u.M.M.u.u.z.l.9.",
"z.z.M.M.z.M.z.z.Z.M.l.v.l.u.y.q.7 h >   > z z > - x     - z z M z z >   > M l . - z & . d z : ~ 8.( Q 8.l.N.M.c.M.V.N.l.l.c.z.u.",
"z.z.M.M.M.M.z.z.Z.z.z.b.l.u.u.l.r.; >   : z z : : l . > l N k > h M l : - n z = - x >   k x - ^ 9.9.9.i.c.M.C.n.N.M.z.M.N.B.z.z.",
"z.z.z.N.N.M.M.M.M.z.z.z.c.l.l.c.r.9 -   > n l * : z & h -.{.3.h 6.[.-.: - n n = & h h   > h . H l.l.x.x.M.M.l.s.L.l.u.M.N.l.z.K.",
"l.z.M.M.M.Z.M.M.l.z.z.M.M.z.N.M.r.; &   > n h . d l & - N {.:.- ].].n . : n n - & d z = = - - 4 n.B.M.N.N.l.u.a.b.9.8.z.B.y.u.K.",
"l.z.M.N.N.M.M.M.l.z.B.M.M.N.M.M.h.. & . y n > . d z &   . n h   n d .   : z M > . : n > & - - + r.N.N.N.M.z.s.a.D.W W u.n.9.y.N.",
"N.N.N.N.N.M.z.z.z.z.M.N.c.c.z.z.4 $ - - x k - . k z -   - d X + & h .   * j M h . - h y - - - - 4 c.B.M.z.l.) ! n.z.z.u.8.) i.N.",
"M.z.M.z.z.M.M.M.z.N.N.N.M.z.N.` . - - - x > - . x z -   = = ^ a.< : .   - - l x   - - - = . + $ . K x.M.z.u.8.E x.s.f.i.u.l.u.l.",
"l.x.l.x.l.z.N.N.M.N.N.N.M.N.w.O . + . - h - - - z > & . . 5 w.) j.O   . - * : z > . - . 4 ^ e.d.[ ~ t.M.M.l.9.) y.8._ q.G.Z.b.y.",
"N.z.l.l.l.z.Z.K.N.z.z.z.M.i.H ^ U ^ [ G @ = . > d - & . 1 ` B V ^ ~ X X + . . : l = + ~ z.N.N.N.z.z.z.M.N.M.v.y.9.8.) 8.y.s.s.t.",
"K.K.N.z.l.z.M.A.C.u.y.y.c.f.y.9.B Q 9.y.` @ : > + P ^ ~ ~ ^ B ~ D a.Z h.G 7 | } q = ^ N.z.z.z.z.z.z.l.M.N.N.c.u.a.s.u.9.W D W ( ",
"G.Z.Z.Z.N.N.M.z.s.8.W ) e.j.) D D ( y.u.u.~ : , r.M.l.N.Y.j.` w.~ r.v.Z.6 o b.J.I H B.M.z.z.l.u.M.z.z.z.N.N.M.l.9.v.C.s.) Q E ) ",
"{ 9.l.C.L.N.N.z.' G B S / ` D 3 9.9.8.8.y.w.4 W 9.9.l.u.u.z.l.Q # % V a.K D P.V.d.z.M.z.z.N.z.z.M.M.z.M.N.N.M.l.u.l.z.b.l.p.y.y.",
"2 S 8.b.K.K.N.z./ V 2 3 G G B 1 b.i.! E W ' ^ G A D 9.( F z.Z.6 S S D k.D.l.V.l.N.B.B.M.N.N.N.N.N.M.z.M.N.K.N.z.Z.c.x.b.P.U.L.c."
};
