/* XPM */
static char *result[] = {
/* columns rows colors chars-per-pixel */
"64 64 245 2 ",
"   c #3C0000",
".  c #350000",
"X  c #2C0000",
"o  c #450100",
"O  c #4B0000",
"+  c #450D00",
"@  c #530201",
"#  c #5B0100",
"$  c #530A06",
"%  c #5F0A1F",
"&  c #640000",
"*  c #6B0100",
"=  c #690B04",
"-  c #730101",
";  c #7C0100",
":  c #7B0C02",
">  c #790909",
",  c #6B1205",
"<  c #781408",
"1  c #790B17",
"2  c #68131B",
"3  c #7A1618",
"4  c #660B13",
"5  c #6C2317",
"6  c #74240B",
"7  c #52182D",
"8  c #761928",
"9  c #6A172C",
"0  c #68283E",
"q  c #7A2838",
"w  c #72332E",
"e  c #39264E",
"r  c #392B56",
"t  c #3C355C",
"y  c #3F3756",
"u  c #452949",
"i  c #5C344B",
"p  c #452D57",
"a  c #43355C",
"s  c #483859",
"d  c #55385A",
"f  c #512F4E",
"g  c #672C42",
"h  c #783549",
"j  c #673755",
"k  c #793C57",
"l  c #67384C",
"z  c #443463",
"x  c #4A3362",
"c  c #443A63",
"v  c #4B3C64",
"b  c #4C3669",
"n  c #4C3C6B",
"m  c #46386A",
"M  c #543C66",
"N  c #533D6B",
"B  c #4A3C72",
"V  c #543D72",
"C  c #583E77",
"Z  c #462F67",
"A  c #603A6D",
"S  c #623D72",
"D  c #56425C",
"F  c #65475E",
"G  c #744258",
"H  c #4C4265",
"J  c #4D436B",
"K  c #4E486E",
"L  c #534466",
"P  c #53436D",
"I  c #5B436E",
"U  c #53496D",
"Y  c #5B4B6E",
"T  c #5F4565",
"R  c #4E4278",
"E  c #544474",
"W  c #5A4573",
"Q  c #554C73",
"!  c #5B4C74",
"~  c #54447A",
"^  c #5C467A",
"/  c #5C4B7B",
"(  c #55497D",
")  c #5D537D",
"_  c #5A5177",
"`  c #644261",
"'  c #684868",
"]  c #794967",
"[  c #6B536C",
"{  c #644C75",
"}  c #644D7C",
"|  c #674A78",
" . c #754D72",
".. c #63527B",
"X. c #68587B",
"o. c #785977",
"O. c #7B586A",
"+. c #840201",
"@. c #8C0201",
"#. c #840B04",
"$. c #8C0B04",
"%. c #84050A",
"&. c #8C040B",
"*. c #840B0B",
"=. c #8D0C0B",
"-. c #940201",
";. c #9C0202",
":. c #930A04",
">. c #9B0A04",
",. c #95040B",
"<. c #9C040A",
"1. c #950A0B",
"2. c #9C0B0C",
"3. c #881409",
"4. c #95130A",
"5. c #850B13",
"6. c #8A0C12",
"7. c #860915",
"8. c #9C0612",
"9. c #930B14",
"0. c #9D0B12",
"q. c #950C19",
"w. c #8B1413",
"e. c #85121B",
"r. c #8D121C",
"t. c #871713",
"y. c #971516",
"u. c #A40303",
"i. c #AC0203",
"p. c #A40A04",
"a. c #AB0905",
"s. c #A4040A",
"d. c #AB050A",
"f. c #A40B0B",
"g. c #AB0A0B",
"h. c #B30203",
"j. c #BA0103",
"k. c #B20904",
"l. c #B4030A",
"z. c #BB020B",
"x. c #B20A0B",
"c. c #B9090B",
"v. c #BB0A06",
"b. c #A6110C",
"n. c #A8150E",
"m. c #A50413",
"M. c #AB0411",
"N. c #A30C12",
"B. c #AC0C12",
"V. c #A70D1A",
"C. c #B60713",
"Z. c #A41318",
"A. c #B11314",
"S. c #8A2618",
"D. c #93201B",
"F. c #A7271C",
"G. c #881A28",
"H. c #941726",
"J. c #AA1525",
"K. c #86222D",
"L. c #9B2739",
"P. c #8D333D",
"I. c #8D3133",
"U. c #AA2F27",
"Y. c #C20105",
"T. c #C0020B",
"R. c #C20B16",
"E. c #914831",
"W. c #B34E3B",
"Q. c #8A3444",
"!. c #933A4A",
"~. c #863D51",
"^. c #9A4856",
"/. c #8F4852",
"(. c #A85946",
"). c #B95D4F",
"_. c #B24950",
"`. c #9E635F",
"'. c #A86955",
"]. c #B56B57",
"[. c #AB745A",
"{. c #B9725B",
"}. c #B1684E",
"|. c #874C63",
" X c #875268",
".X c #945866",
"XX c #8B5577",
"oX c #AA5768",
"OX c #88667C",
"+X c #966676",
"@X c #9C6C68",
"#X c #B97866",
"$X c #B07072",
"%X c #D1594C",
"&X c #C5564D",
"*X c #C7655B",
"=X c #D06B5F",
"-X c #C87B69",
";X c #D37767",
":X c #D26D67",
">X c #F17E79",
",X c #BD8466",
"<X c #C68368",
"1X c #C99377",
"2X c #CE8875",
"3X c #5C4B82",
"4X c #564C80",
"5X c #5F5284",
"6X c #634C82",
"7X c #694D84",
"8X c #655483",
"9X c #695483",
"0X c #645983",
"qX c #6B5B85",
"wX c #6B568B",
"eX c #6C5B8B",
"rX c #63578C",
"tX c #735C8B",
"yX c #735788",
"uX c #6B5A93",
"iX c #735C93",
"pX c #6C638A",
"aX c #72638C",
"sX c #76678B",
"dX c #736394",
"fX c #7D6392",
"gX c #7D6B9C",
"hX c #786898",
"jX c #7E719C",
"kX c #756B8E",
"lX c #7B68A2",
"zX c #7F71A4",
"xX c #836686",
"cX c #836D9D",
"vX c #846899",
"bX c #82749C",
"nX c #967995",
"mX c #AF6D85",
"MX c #826BA4",
"NX c #846CAA",
"BX c #8474A4",
"VX c #8975AA",
"CX c #9079AE",
"ZX c #FB9989",
"AX c #D69380",
/* pixels */
";.x.h.h.Y.j.i.i.k.h.i.i.i.i.i.i.h.j.h.h.i.d.z.l.s.i.i.x.h.h.j.Y.h.h.j.h.i.g.p.u.a.i.p.p.-.@.@.;.h.h.h.h.h.j.j.j.j.j.h.i.i.a.h.h.",
";.a.i.h.z.j.u.u.i.i.u.u.i.i.i.i.h.h.h.h.i.i.h.i.i.s.i.h.i.h.j.j.h.h.i.u.u.u.;.-.i.i.i.p.>.;.-.;.i.h.h.h.h.h.j.j.j.h.i.h.i.h.h.h.",
";.g.g.i.l.k.u.i.h.i.u.p.i.i.i.i.h.i.i.h.d.i.s.;.u.u.i.i.h.h.h.h.h.i.;.;.u.p.u.;.h.i.h.h.k.d.;.>.u.i.i.i.h.h.h.h.h.h.h.h.h.h.h.h.",
";.B.f.>.g.d.i.d.h.u.u.p.x.k.h.h.i.h.i.h.h.h.u.-.;.;.i.i.h.h.h.k.h.i.u.;.u.g.i.u.i.i.j.Y.T.l.s.;.;.u.i.i.i.h.i.i.h.h.k.k.h.h.h.j.",
";.f.1.@.;.a.d.x.i.u.-.;.h.h.h.i.i.i.h.h.h.h.;.-.-.;.s.i.h.i.i.x.x.x.h.h.h.l.h.i.u.i.j.j.T.z.s.-.;.u.u.i.i.g.i.u.u.a.l.h.h.h.j.h.",
";.2.-.+.-.s.i.d.u.;.-.;.a.k.i.u.i.i.i.h.h.u.;.;.-.u.a.i.i.i.i.i.i.h.j.h.h.z.h.s.u.a.h.j.j.h.s.-.;.p.i.s.i.d.s.;.;.u.i.h.h.h.h.j.",
";.>.@.+.-.u.u.i.i.u.u.u.l.h.h.h.i.i.i.p.;.;.u.u.i.i.d.i.i.h.i.h.h.h.j.j.z.z.i.;.u.a.h.i.i.i.s.u.;.p.p.u.u.s.s.-.-.;.s.d.l.h.h.h.",
";.;.-.-.u.f.u.u.i.i.i.x.h.h.h.k.i.i.a.p.>.;.u.d.i.i.;.;.i.h.h.h.v.h.j.j.h.i.u.@.u.a.g.u.u.;.u.s.;.s.g.u.;.>.;.@.@.-.s.d.i.i.h.z.",
";.;.u.i.u.;.u.u.u.i.i.h.i.h.h.h.i.i.h.i.i.i.i.i.c.i.>.$.;.i.h.h.h.h.h.k.u.u.;.;.h.i.u.u.;.-.u.a.d.u.u.>.;.-.-.f.2.<.;.;.u.i.i.i.",
";.u.i.i.u.u.u.;.u.i.h.h.h.i.i.h.i.i.i.h.h.h.x.h.l.;.; ; ;.x.l.h.h.j.h.a.g.u.;.u.i.i.i.u.;.;.-.f.s.;.;.;.;.-.-.<.s.>.-.-.u.u.i.i.",
";.u.h.h.i.i.u.u.u.i.h.h.i.i.h.i.i.i.i.l.j.z.l.h.x.;.; ; ;.x.x.h.h.j.i.i.l.d.h.i.i.u.u.u.;.-.-.;.i.u.;.s.;.-.;.u.f.>.-.>.;.u.i.i.",
";.i.i.h.i.p.p.u.i.i.h.j.h.i.h.h.i.s.d.u.f.f.l.h.z.u.-.$.u.k.j.h.i.h.h.h.h.i.i.u.;.>.p.;.;.>.-.@.d.i.u.p.s.s.>.s.s.;.;.;.;.u.i.h.",
"u.u.u.u.u.p.u.u.u.i.h.h.i.i.h.i.i.u.@.; = 3.B.R.z.z.x.i.i.h.j.j.h.u.i.i.g.d.<.0.$.#.4.4.4.4.+.-.;.i.s.u.u.s.;.;.;.;.;.>.u.i.i.h.",
"p.u.;.;.-.>.u.u.u.i.i.h.h.i.h.i.B.8.@.* @ * s.c.h.j.v.l.i.h.j.v.i.a.b.>.2.$.y.).ZX<X;XZXS.#.=.@.;.s.i.u.u.f.u.-.-.;.;.u.a.a.h.x.",
"s.;.-.@.@.-.u.u.u.u.i.h.h.i.h.i.N.Z.<.; * * -.d.i.h.l.h.h.h.k.a.u.p.3.S.E.'.-X-X-X2X<X1X<X< #.+.;.u.i.u.u.g.u.-.-.;.u.i.i.i.h.k.",
"s.;.-.+.+.@.-.;.s.u.i.i.i.i.i.a.-.9.y.w.> : =.2.2.f.2.>.p.p.4.$.F._.*X2X#X{.1X(.= , w [.1X-X#.@.-.>.i.u.i.a.u.-.;.u.p.i.i.i.p.u.",
">.-.;.N.2.+.- ; s.i.i.i.i.i.h.i.2.:X-X5 2 = t.t.t.t.S.6 E.}.{.<X<X-X<X;XD.D.*.: 2.N.w.3 #X}.S.$.@.;.u.s.i.h.a.a.h.u.i.f.@.; +.:.",
"-.-.;.d.m.+.- ; s.i.i.i.i.i.k.a.u.>X#X1X#X#X].:X].#X'.].<X,X,X[.1X<X< t.N.-.,.-.s.u.4.3.E.{.&X4.-.>.u.i.i.i.h.i.h.h.g.g.<.@.,.0.",
"i.u.i.d.d.,.%.&.d.i.i.i.p.p.p.p.f.F.W.(.E.(.(.).W.}.W.W.W.E.6 #X'.E.< 4.u.i.i.p.4.U.r.3 5 2X%X;.s.u.u.u.i.i.i.h.h.h.l.c.d.d.d.M.",
"i.u.u.d.s.,.@.-.u.u.;.;.;.p.u.p.p.>.#.: 3.: : #., , 3.#.4.S.2 `.'.E.< ; 0.a.i.a.:.%X%X*X:X=X>.x.i.i.u.u.u.i.i.i.i.k.h.l.l.z.z.l.",
">.>.;.;.;.-.@.@.-.-.:.-.;.i.l.d.u.p.p.a.p.a.;.m.+.; 1.=.e.4 7 $X@X,XE.$ < w.2.f.s.Z.=X).=Xy.;.u.i.i.u.;.u.u.u.u.u.a.a.i.z.z.j.h.",
">.;.-.-.-.;.:.-.-.-.@.$.;.s.l.l.u.;.h.v.v.u.J.q.7.G.K.P.^.+X] l OXG .X.X^.^.3 7.N.<.y.3.3.n.u.h.i.u.u.p.u.u.i.u.;.-.;.u.h.j.j.j.",
"u.u.p.s.u.a.a.u.u.u.;.-.-.;.s.M.s.;.j.h.i.8.7.G.Q.oX XOXOX' sXo. .o.nXo.F F |.mX!.q.:.>.p.u.l.i.i.i.u.i.h.i.h.i.-.@.-.;.h.h.h.j.",
"i.a.i.u.p.g.h.i.z.l.p.>.@.@.-.,.8.d.j.h.;.e.oX X] O.L K Q ) kXcXcXkXpX_ a N ' A .X).4.p.i.i.l.l.u.u.h.h.h.x.l.d.-.-.-.p.k.h.j.v.",
"u.u.i.i.u.u.i.h.k.l.s.@.- & * ; <.s.h.u.3.Q.F d d o.iXBX3Xm m t B 4XhXzXzX4XrXB [ G _.f.u.h.h.d.a.i.i.h.i.u.u.s.u.<.p.p.i.k.h.h.",
"u.i.i.i.i.u.i.h.h.h.<.@.- & - +.s.M.B.6.8 +Xd H C x NXlXhX3XuXE 3XuXlXdXCXrX4XR Q O.P.=.>.;.k.i.h.i.h.k.s.;.>.f.d.u.s.u.i.i.h.h.",
"u.u.h.h.i.i.h.h.h.h.u.>.+.; @.-.h.i.,.oX+X[ hXb t m eXBXC 6XdXgXdXR 6XdXuXuX5X3XM f G q r.B.u.i.i.i.h.h.>.+.@.2.N.i.u.u.h.h.h.h.",
";.u.i.h.i.i.i.h.h.d.d.s.-.@.@.;.c.g.> .XOX..yX| n J dXE W wX9X/ ( E E gX/ V iX^ } I d ] Q.7.f.u.h.i.h.i.>.; ; -.f.s.;.u.h.j.h.h.",
";.u.u.i.p.i.i.h.d.d.M.d.;.@.@.@.u.y./.+XsX9XS S BX) H K R m 6XyXX...qXa W ..J U 5XjXa f k 8 Z.i.c.h.h.l.p.@.@.-.s.u.;.s.z.z.h.h.",
";.;.i.i.i.u.i.i.<.d.d.d.s.,.-.@.f.w..X` P V A A qXQ _ kX0XhXW x M 8XhX/ fXI hXpXm m m W o.h 5.<.i.h.h.h.d.>.u.s.u.-.-.s.l.l.l.d.",
";.;.i.i.i.h.i.d.@.@.-.s.i.i.u.u.1.oXg a N ~ } M X.E dX( eXQ tXW 7XW / 5XMX .CXhX( 5XJ s u O.^.r.:.u.d.i.u.s.d.d.;.+.; #.;.;.>.2.",
"-.>.s.i.i.i.h.i.+.+.-.;.f.x.k.d.y./.` J n Z x X.! J 8Xn aXCXhX} iXdXc b vX7XV N 5XhXJ H H [ |.G.+.f.a.u.;.s.d.i.-.; - ; @.-.@.2.",
"- w.;.d.d.i.R.d.i.u.@.+.@.<.i.B.G./.F Q n n N P ..L W } 5XpX{ fXcX8XpXc W CXVXyXL c c K 0XX.mX2 9.<.-.;.;.u.i.i.>.:.$.:.;.d.s.;.",
"* 6.<.f.s.<.V.s.i.d.;.@.@.:.u.<.G.|.f H a ^ V p J n N } pXm / N N ..L { v b b 9XI L X.t J [ j P.8.s.-.;.u.u.h.i.p.-.-.p.g.d.>.s.",
"@.2.f.>.&.; > & 2.N.<.-.-.;.;.1.8 h o.s N vXtXv sXqXx b n R 0X0Xn J N L n zX8Xb { { Q H X.T j % 9.u.u.;.u.i.d.i.u.-.;.d.g.;.-.2.",
"u.d.p.;.+.- O o +.2.<.<.s.s.u.2.8 l D ! iXyX} | H _ b wX8Xm U X.v 0XvX} R 5X~ 7XqX{ U a L d i % ,.i.s.i.i.s.i.u.s.;.u.d.d.;.-.;.",
"i.h.i.u.s.6.$   * %.&.1.M.l.i.f.I.g f pXyXiX| yXr a n b ~ 8Xc H t / iXyXt 4XB iX| | Y s D A 7 9 8.x.h.i.g.u.<.<.-.f.B.s.u.;.;.s.",
"k.i.h.u.d.y.#   * *.*.,.d.l.h.p.3 .XD kXiXMXvX| ! _ b iXwX~ Q pX) P } yX( ~ m ( yXiXL Y p M g 1 <.h.i.i.u.s.;.-.@.<.f.-.@.;.p.p.",
"i.u.k.u.u.8.@   > *.+.+.;.d.u.>.3 oX' H NXgXC I X.v ^ yXwX/ ) J t jX^ 6XlX5XrXK z N E ! s F q 1 s.i.u.u.;.;.;.;.@.-.$.+.+.@.s.a.",
"u.;.a.u.u.Z.& # *.1.+.+.;.;.>.:.> ^.i r uXVXeXc c a } MXN wX0Xz r dX4XgXzXdXkXzXQ X.dXJ o.G q 9.g.h.a.u.u.s.s.<.9.+.; +.@.-.u.x.",
"i.h.u.u.x.<.; : @.;.s.;.-.@.@.:.=._.|.s 3XlXB ~ Y L H qXhXqX^ 8XQ eX6XlXMXqXy H H c ( c d k 1 m.h.j.k.h.d.B.-.; * * ; 1.g.i.i.i.",
"l.B.u.u.l.d.@.-.;.i.i.s.,.@.+.+.-.%./.d n 4X~ n H U { s p b ^ gX8X6XlXuXuX) H kXX.U B qX .% q.i.h.j.h.i.i.s.-.; : - #.N.C.l.h.x.",
"d.M.i.u.l.l.u.i.i.i.h.i.<.,.@.-.u.y.q k x m 8X( Y X.{ ! b b C Z b b 7XNXdXjXs H { P 9X{ |.8 f.h.j.Y.i.i.d.s.s.-.+.+.,.f.l.h.i.i.",
"s.M.;.u.l.h.h.k.i.i.j.h.<.,.-.;.x.-.G.~.j X.bXqXsXY pXY N VXV iX7X3XiXC 4Xy D ' y p 9X] oX7.;.h.Y.Y.i.u.u.d.M.d.-.-.>.d.d.i.i.i.",
"@.1.-.-.d.i.i.h.u.i.j.h.;.:.,.>.u.2.6.Q.0 OX{ E eXqXeXI v } Z 8XeXW VXNXdX8XX.Y M u ] k L.9.;.i.j.j.i.u.s.u.d.i.-.;.f.d.i.i.i.h.",
"- =.$.@.d.l.i.i.i.k.v.h.;.-.-.;.;.b.<.e.!. XyXgXzX( a e tX8X( / r ..b uX9XqXa ' M d k 8 %.m.<.d.c.x.u.s.s.s.s.s.;.;.;.u.s.i.i.i.",
"* *.#.-.d.z.l.h.h.k.j.h.;.;.;.;.n.-.>.&.3 ~.' vX( r E p dXn eXcXy _ J wXMX7XC p u j 9 e.9.-.;.-.2.-.;.;.d.i.i.u.;.u.;.;.;.;.>.u.",
"; =.:.;.l.z.z.z.h.i.i.d.s.f.u.;.-.-.;.-.*.2 0 G ] p | p qXL cXBXv H J gX7XtXC u j 9 8 ,.;.g.<.,.*.; +.-.s.d.s.s.i.s.u.u.;.u.s.>.",
"p.u.i.i.h.i.i.i.u.d.u.-.@.2.p.u.@.-.u.f.1.*.5.1 8 h l u X.{ ' N t 3X| yXvXxXA g 8 r.2.;.i.s.<.&.6.* # - ,.f.f.s.u.i.a.a.i.i.>.;.",
"i.h.h.h.i.i.i.u.i.s.;.-.@.<.s.u.-.p.g.a.>.-.;.8.q.G.q 0 |..XXXXX XXXXXA ] G 0 2 9.p.p.i.i.d.s.&.5.& # * ,.m.s.u.u.i.a.u.u.u.u.;.",
"i.i.h.h.h.i.u.u.i.s.u.;.-.>.>.;.i.i.i.i.s.p.>.s.s.m.9.y.r.L.L.H.7.7.H.H.P.8 4 > f.i.h.h.j.h.d.:.> & # - -.d.u.u.u.i.i.u.;.p.;.;.",
"i.i.h.h.h.i.i.u.l.d.u.s.>.-.-.;.x.i.i.u.a.N.f.s.l.C.l.d.;.N.s.u.s.i.i.-.* * - -.s.l.h.h.j.h.u.-.+.- - #.s.d.d.d.i.h.h.i.u.p.u.u.",
"s.i.h.j.j.h.h.i.c.h.i.l.i.;.;.u.i.i.h.f.:.*.1.y.1.s.s.s.s.s.u.a.u.v.a.p.; +.;.C.d.l.l.h.i.i.u.-.-.@.-.>.s.d.i.i.z.j.h.h.h.k.h.i.",
"s.i.h.j.j.j.h.h.h.i.h.l.i.u.u.u.;.m.0.=.* # & ; %.&.-.u.i.u.u.i.i.i.u.a.<.-.d.C.i.l.l.i.i.i.u.u.u.u.i.i.i.i.u.s.l.h.u.i.i.i.i.h.",
"u.i.h.j.j.j.h.h.i.i.h.h.h.i.h.a.8.> # $ & & & * * ; @.;.u.u.i.a.-.<.f.s.M.M.d.-.;.u.i.a.i.h.h.h.h.h.k.k.h.i.;.-.s.-.@.>.2.;.i.l.",
"u.i.i.h.j.j.j.h.h.h.k.h.h.h.h.i.Z.& . o e.J.y.7.* - @.s.u.k.h.h.-.%.,.m.C.M.+.@.@.-.i.i.h.k.z.j.j.j.h.h.h.d.<.$.<.+.+.:.1.-.;.c.",
"h.h.h.i.i.h.i.h.h.i.x.h.h.h.h.i.,.- # & &.N.N.2.3.* +.f.i.i.h.a.; * Z.m.m.V.- - - :.h.v.h.h.z.z.j.j.h.a.i.;.+.; 1.2.2.-.+.@.u.M.",
"j.h.a.i.i.i.i.h.i.h.i.h.h.h.j.l.s.&.%.9.N.B.h.i.:.#.:.p.a.g.f.:.: & ,.8.%.G.3 < - $.v.Y.h.h.l.k.j.h.a.i.u.;.+.; 1.2.<.1.1.<.<.u.",
"Y.j.i.u.i.p.h.h.h.h.h.l.l.i.l.c.<.f.g.x.x.h.h.k.u.b.>.-.<.m.%.- y.#.<.&.@     . # : p.j.j.j.j.z.i.i.i.i.i.s.-.@.-.-.@.,.N.N.s.s.",
"Y.h.i.u.i.i.h.j.h.h.i.d.d.s.d.s.@.-.s.i.i.i.i.j.i.x.;.@.<.&.& & : @.,.; o X   O & ; ;.i.h.h.h.j.i.u.i.h.h.h.s.;.;.-.@.@.,.,.<.<.",
"z.z.h.i.h.h.j.l.d.u.-.<.m.8.,.+.* - 7.,.;.u.h.c.h.c.i.s.B.@.& * ; ,.0.r.$   1 H.=.1.d.l.a.u.i.i.h.h.i.i.j.j.i.>.;.>.-.@.; - ; ; ",
"B.g.g.k.h.z.h.i.<.+.; ; 5.5.; * & - %.&.,.<.d.d.g.p.s.l.B.,.; > > 1 q.r.O o q.N.m.M.c.i.u.i.u.i.j.h.i.i.j.j.i.u.;.<.<.:.+.; - ; ",
"; #.<.a.z.z.l.s.+.* # # 4 = # # ; %.*.; +.-.@.@.#.#.@.,.;.2.=.* O o & : * * A.c.h.l.h.j.h.h.h.h.h.h.i.i.j.j.i.u.u.u.u.p.s.s.;.;.",
"# * +.s.z.z.l.<.* # o o @ $ O O w.,.; - ; +.+.- * * ; +.+.2.y.# o + $ t.w.>.k.h.Y.T.T.j.Y.j.k.h.j.h.i.a.j.j.j.h.x.i.s.u.C.C.C.d."
};
