/* XPM */
static char *result[] = {
/* columns rows colors chars-per-pixel */
"99 64 126 2 ",
"   c #040200",
".  c #0B0000",
"X  c #0F0900",
"o  c #160300",
"O  c #1D0000",
"+  c #1B0800",
"@  c #001000",
"#  c #230700",
"$  c #2E0300",
"%  c #210D02",
"&  c #2B0C00",
"*  c #340201",
"=  c #3B0200",
"-  c #350C00",
";  c #3C0A00",
":  c #3C0908",
">  c #201200",
",  c #351202",
"<  c #3A1000",
"1  c #440301",
"2  c #4C0301",
"3  c #440C00",
"4  c #4B0D01",
"5  c #400008",
"6  c #450909",
"7  c #530101",
"8  c #5C0201",
"9  c #530D01",
"0  c #5B0C03",
"q  c #56070C",
"w  c #5A0008",
"e  c #461001",
"r  c #4E1100",
"t  c #451008",
"y  c #5F1D05",
"u  c #630300",
"i  c #6B0201",
"p  c #650A01",
"a  c #6C0A01",
"s  c #65020A",
"d  c #6C020A",
"f  c #640B0B",
"g  c #6E0A0A",
"h  c #740201",
"j  c #7C0201",
"k  c #730A01",
"l  c #7B0A02",
"z  c #74030C",
"x  c #7B020B",
"c  c #760C0B",
"v  c #7C0B0B",
"b  c #621203",
"n  c #681002",
"m  c #7B1204",
"M  c #791108",
"N  c #840201",
"B  c #8B0201",
"V  c #840A02",
"C  c #8C0903",
"Z  c #84040A",
"A  c #8D030B",
"S  c #840B0B",
"D  c #8D0C09",
"F  c #940202",
"G  c #9C0202",
"H  c #940903",
"J  c #9B0A03",
"K  c #94030B",
"L  c #9C030A",
"P  c #930A0C",
"I  c #9B0B0A",
"U  c #841002",
"Y  c #8B1106",
"T  c #87120C",
"R  c #97110D",
"E  c #8E0611",
"W  c #8C0D12",
"Q  c #940312",
"!  c #930C14",
"~  c #9C0518",
"^  c #9B0B1A",
"/  c #94171B",
"(  c #A40202",
")  c #AC0202",
"_  c #A40903",
"`  c #AB0904",
"'  c #A4030A",
"]  c #AB030A",
"[  c #A30A0A",
"{  c #AC0A0A",
"}  c #B30102",
"|  c #BB0103",
" . c #B40904",
".. c #BB0903",
"X. c #B3030A",
"o. c #BB010A",
"O. c #B5090B",
"+. c #B90909",
"@. c #B21003",
"#. c #A60312",
"$. c #AB0312",
"%. c #A60B14",
"&. c #AE0814",
"*. c #AB0418",
"=. c #A80A19",
"-. c #B60212",
";. c #BB0312",
":. c #B40912",
">. c #BA0814",
",. c #B5031B",
"<. c #BF001B",
"1. c #B61012",
"2. c #A20020",
"3. c #C20003",
"4. c #CB0002",
"5. c #C3000B",
"6. c #CB000B",
"7. c #D30005",
"8. c #D4000C",
"9. c #D9000B",
"0. c #C20114",
"q. c #CA0113",
"w. c #CE0019",
"e. c #D70015",
"r. c #DE0010",
"t. c #E10027",
/* pixels */
"C 5.| G | 3.( _ | ) ( (  .) ( _ | } } ) )  .o.o.) } o.o.| | |  .) } | | 3.o._ H | } ) _ F B B G o.} } } } } } | } } } ) } } } } | } | } | } } | ( ) ) } o.+.X.) ( ' ) } o.| } } ) } | ) K B G  .] ] ] ",
"N 5.} J | 3.( G } ) ( ) ) ) ( ( | } } ) } ) ) ) ) ) ) } } } ) }  . .( ) ) ) G j } ) ) ` ( F F L } } } } } } } | } } } } } } } } } } } } } } | }  .) } } } } ) ( ( ) ) } } } } }  .} } ) B B F ( N V C ",
"B 5.o.J ..3.( ( | ) )  .} } } ) ) ) } } X.] ( F ( ( ) ) } } } } ) ( F F ( ) G B ` ) ) | +.] L H ) ) ) ) } } } } | | } | } } } } } } } } } } } } } } } } } ) ( G ) ) ) } } } } ) } } } ( F B B F B F H ",
"B 5.+.H } | ) O.` ( G ) o.o.}  .( ) } | } ) F N F G ' ) X.} } | } ) F F ( +.` ( G ( } o.5.X.' G G ( ) ) } } } } } o.o.} } } } } } } } } } } } } | | } } } ] ) ( ) ) ) } } } ) ` } } ) ( F B C B ( ] X.",
"C o.) N ( | )  .G F B G ) } ) ( ( ) } } } ( F N B F ( ` ) ) ) } 3.| ` ( ) } } } I ) } o.5.o.( F G ( ) ) ) } ` ) ) X.} o.} } } } } ) } ) } ) ) } } | } | } ` ) ( } ) } } } ) ) ) | } ) ` ( F B N G ' ( ",
"V o.G h F ) ( } G F N F `  .) ( ( ) ) } ) ( G F F ( ]  .) ( )  .| }  .} } o.X.) ( ) } } } } ( G G ( ` ) ) ] ( G G ' ] } | } } } } } } } } } } } } } } } } ) ( G ]  .} } } } ) ) o. .) ) ) ( H Z ' ] ] ",
"V } B i F ] ( ) ) ( G ) } } } ` ) )  .) ) ( ( ) ( ) ] ) } ) ) ) } ) ) } | o.] F ) X.X.( ( ) ) ( G ] ` ) ( ( J B N K ' X.| } } }  .) } ) ) } } )  .) } } } } ) ( ( ) } } } } } } 3.} ` ) } X.L B A K #.",
"V ) B a P X.( ) | }  .+.| | } o.) } ` ( G ( ) +.) ) ( ) } } } )  . .} } | X.F h } X.O.( G ( ' ) G ) X.) ( ( H N j B L O. .} | } ) } ) } } ) } ) ( ) ) } o.X.X.} ( ( ) } } } o.X.| ) ( ) | o.G A = 7 a ",
"F G ( ) ( G G L ) ) ) ) } } } | ) ] { _ ) ) ) ) ..) F A K ( | 3.| | | o.X.( G F ) ) ) ( J F G +.} H D ' L l V ` } ) ( ( ( [ G ( G ( ( L C v W W ( ) } 3.4.o.F i G ( ) } o.} ) ) G ) } | | ) F j 7 i N ",
"G ( ` ) ) ( ( ( ) ) ) } } } } | ( ( ) } | | | ` | F k l ' o.| ` } | | | } ( G G  .) ) ( F F G ) } B B L G j N ( ) ( G G G ( ' ( ( ) ) G B h h j ` ) | | | o.H j ( ) } X.X.} } ) } ` J F C H L K N K G ",
"( ( )  .) ) ( ( ) ) ) ) } } } o._ { X.} | | } ) 3.B p a ' 5.| H } } } } X.) ( ( ) ) ) ( F B F G } G F ' ' B C ( ( ( G G G ( ' ] ( } } ( F N N B ) ) `  .} } ) L ) ) } X.X.) ) ] } ) ( H H H ' L #.X.o.",
") ) ) ) ` ) ) ) ( ( ) ) ) } } } ( ] ( ( _ ] o.| | ( V B ] 3.} ( ) ) ) } } ) ] ) G ) ) ) G B B F ] ' ] ] ] G ( ( _ J G G G ( ( ( ) } X.} ( I ' { } ) _ ( ) } } } } } } } ) ) ( ( ) } 3.3.3.o.] G G ) o.",
") ) ( ( ( ` ) ) ( ) ) ) ) } } } ) ( N a n T O.9. . .} } ) ) } 3.) ) ) ) ) } X.) F ] } } ( H A Z G ' ) ) ) ) ( F F G G ( ' ) ( ) } } | } ( ( ` ) } ( F F ( } | } } } } ) ) ( ( ' ( ) } ) ] ] ' K B G ) ",
") ( G F F G ( ) ( ( ) ` } ) } } | ' N 7 1 u ' 9.( | 7.3.) G } 4.} } ) ) ' ) ) X.N G ) } ) F B j H ) } ( ( } ( B N F G '  . .} +.) | | | ) ) ) } } ( F G ) o.} } | } ) ) ) ) ) } ) _ V i 8 i V F V H ' ",
") G B B B K G ( ( ( ( ) ) } } ) { { L h 7 u B | ( } | | } } } | } } } ) ` ) ) ) i B ) } ( F N j C ) } ( ` | ) N B F ( ) } } } X.) } | |  . .} | ) ( G ( X.} }  .} ) ) ) ) } X.| } ( V u 8 u j B H ] } ",
"( G N j j B G ( ( ` ( ) ) ) X.} N ( -.#.Z v D ] } ` (  .| | } ( | } ) ) ) ( ) ) i C ` } ) ( K Z V ) } ( ( | ) j L G ( ) } } } } ) } | } ) ) } } ) ( ' ] } } ) ` ] ) ( ( ( ) } | | o.O.$.L K B B ] } | ",
"' V B +.] a 8 d ( ( ( ( ) | | 3.` _ F Z j N ( 5.} } } C | 7.G 4.) ` ) ) } ' H v ] ] ) ] { ] ) ( F G ( ( ] } o.} _ ) ) [ N u i A o.} ) } } | ) G ` ( ) )  .} } ) ) ) ) } } } } | G +.( ( o.D c ] ) ) ) ",
"( B F } ) N i x ) ) ( ( ) ` X.X.} } ] B j N G ) } | 3.( | 3.V 3.} } ) } } ) G H ) ) ) ( ( ( ( ( G G ( ( ) } } X. .} | +.I N B %.} } ) ) o.} ) G ) ( ) ) X.} } ) ) ) ) } } } | } ) o.` ( o.C k ( ( G F ",
") F G X.X.H Z A } ) ) ( ( _ ` ( | | } G B N F G R ( 4.) 3.o.C q.| ) ( ( ) ) ) ) ) ) ) ( ( G ( ' ( ( ( ( ( ( ) ` } | 3.o.X.( ] -.| ) ) ) | | ) ( ) ) ) ) X.} } ) } ) } ) } } } } | 5.( ( X.B i G N N V ",
"] ( ( ) ' K C A ` ( G J ( _ ( ` } } } ) H F G ( y j | ) +.) j w.| ) F H ' ] } } ) } } ) ) ) ) ` ( ( ( G ( G ( ( } | | | } } } } } ) ) ) } | ) ( } ) ) ) ) ) ) } ) } ) } } } } } o.} F F ] Z p K j l h ",
"[ ( ( F F F F N F H F G G ( } } G ) }  .' ` ) o.0 N X.I ( B 1 K +.G j j H ' X.} X.} }  .O. .` ) ) ) ( ( ( ( ( ( ` ` ' } | o.| ) } ) ( } | | } ( } } ) ( ) ) } } } } } } } ) } } o.( h V ' x 9 j Z Z j ",
"G ( G C C L ( B B B F F G ( } o.C J ) } } X.} o.( ) 5.I L j # 4 +.G j h B ( } ) | } } } | } ) ) ) ) ) ) ( ( ) ` B B H ( } | } ( ) ) ) ) | o.} ( } } ) ) ( ( } } } } } } } ) ) ) o.G u a G h 2 i C B B ",
"J } ) P P +.} _ ( G G G G G ( ' H ( } | } ` ' ( 6.X.` V ] #.- 4 o.( B B G ) } } } } } } } ) ) } ) ) } ) ) } } ) j j N G } | } ` } ( ) ) } o.} ) o.| ) ( ( ( ) } } } } } } ) ) ) o.G u k ' Z 8 j B B N ",
"( | X.F I o.| ( o.o.] ( G B B B G ) } | ) ( F F } F j i } e.i i | X.] $.] o.| | | | | } } ) } X.) ) }  .} } } } Z j V [ o.3.|  .) ( ( } | | } ` | o. .( G ( ) } | | } } } ) ) ) 5.G u h ,.L k A B N V ",
"G ( ) } ) ( ) }  .o.X.B 8 4 0 h F G ( ) } ( B k ` h = , 9 h B L c ^ N u N 5.4.| 3.} } )  .) } } X.} } } ) ( ( } } ) ) } } | } ) | | 3.) J F ( |  .} } } ) ) ( ( } } } } } } } } o.} G B B Z N S j h k ",
"F ( ) } ) ( ) } ` } ) K i 8 d N ) `  .| | } G P | ( A B N h 2 & u u u h C G ) o.| } } } } } } } ] ) }  ._ H ( { } ) ( ` } | } ` } ) ( ) } | } ( ) } ) ) ) ) ) ) } } } } } } } } } ) ` F x z x N G B Z ",
"F ( ) } ) ( ) } ( } } G j k Z K | } } } 3.| } ) _ ^ ^ *.o.O.Y b 2 1 2 N G V N O.} } | } } } } ) ( ( ) { H N N I { ( G ( } | } )  .J F ( 6.8.o._ ) ) ) ) ) } } } } } } } } } } } ) } } B 0 6 i B G F Z ",
"G ( ) } ) ` ` }  .| } ( B N B H 3.| ) ) } | } ) B a 9 u G 4.8.o.1 4 u B ' B N ( ) } } | } } ) ) ) ) ) ` F h h A ` G F ( } | } ) X._ I B G ( ] { ( ) ) ) } } } | } } } } } } } } [ o.} j = * u G K N h ",
"F ( } ) ) ( ) } | | o.} G B N N 3.} ` (  .} } ( | N = * i ) | G 1 v Q B L ] ) F ) } } X.] } ) ) ..| }  .[ B N F ) G F ( X.3.| | } | ) j 2 7 N o.) ) ) ) } } } | } } } } } } } } _ o.} j 1 = u G ' H h ",
"F ( ) } ) ) ) } ) ) } ` ` G F N | ) ( ( ) ) G B ;.v : 6 W :._ j 8 L ] B G 0.o.F }  .] G G '  .} } } | } { [ ( ' ( F B I ` } } o.} 3.o.V ; - j 5.) ) } } ) } } } } } } } } } } } G ) } G g 0 x G X.( K ",
"G ( } ) ) ` ) } Z N F ( } } ) ( } ) ) } } ) F j v 1 o : Q 5.| H B ' ( G ( } ) ( | } ( N N L ` } G ) ) ) G ( ] ) L N j Z F G ( ] ) | o.G k a B ] | } } } } } } ) } } } } } } } } ( } } ' Q A C F ) F Z ",
"F ( ) } ( ( ) } w d j J | 3.3.} X.X.} 3.5.X.F k Z = . * A 5.o._ } J F ) +.G G o.o.} H h h H } } B [ { ( G G ` ) K h i a j j B P _ ( } } X.] G B | } } } } ) ) ) ) } } } } } } } |  . .) ' ' F V N k 0 ",
"2 *.F } } ( r.( ) ( B h V I } o.} } ) ` ' ' G F V B 2 $ j ;.) ` J ) } | ) ) ) } ) ) ( ) ( ) } ) ( L F B F G ( } G ( G U J } } C 3.|  ._ B j j Z _ | 3.3.) ` ` ) | | | | } } ' _ } } ) F k p 8 w x h d ",
"7 ' H ` ( F 0.T } +.F N B F G ) } } ) ) ` ( G G C F u 3 A o.( ( ( } | | } ( ) ) ) ) ) ( ` ) ) ) ' ( G G F ( ) } X.K B _  .) ( I | } ) ' F N j x B ( | } } { X.} ) } } ) ) ( G G ) }  .G N i u s 7 7 2 ",
"i ] _ J B h Z 1 } O.' F G F F ( | } } ) ( ( G G C $.x 9 K X.( G ) } | | ) ( ( ) } ) ( ) ) ) ) ) ( ( G G ( ( ) } X.N N o.5.G N ' } } } } ( F N j j F (  .}  .} | ( ` ) ) ) ( ( G ) )  .' G N j v 7 7 0 ",
"B X.) J N j 7 o B ( ' ( ( ] ( ` | } ) ) ( ( L G H X.N 8 B } ) ` ) | 3.o.) ( ( ) ) ) ( ( ( )  .) ) ) ) ) ( ( ) ) ] B G X.} F N L ` } } | X.' B j B F ( ) ) ) } } ) ) )  .} ) ( )  .( ) X.] G B P B N z ",
"} o.| G I ^ q o h N F ' O.X.| | | } ) ) ( [ G G B o.F i G } `  .} o.o.} ) _ ( ) ) ) ) ( ` ) ) } X.} O.) ] ' ( ) B { >.[ F ( ' I ` ) | | o.X.G N ) ) ) ) } ) ) ) } } } } } } X.}  .G G [ :.] ( F L B h ",
"o.} 3.G G ,.q o i V C K ] X.} 3.{ ' ( ( ' ( ( G Z X.] V ' | ) } ) } o.) G G ( ) ) ) ( ) ) ) ) ) } } } ) ( ( G G j ] -.A j G X.I } } } | } X.( G -.' ' ( X.} ) ` } } } } ) X.X.X.} G j N #.X.) G H j 8 ",
"} G 3.F G ;.2 O N H B N F ( ) } F F G L ( ' ( G l o.] C ' | ( } ( ( ) ( G F ( } ) ) ( ( ` ) ) ) } } ) ( ( G F F N F F j h Z ' o.} | | } } } } } K N N H X.o.} ) | } ) ( ( ( ( ] | F i 8 j $.X.( J j u ",
"( B 3.B F q.8 , ( L N j N H G ` B B F F I ( ( ( c X.( j ( } ) o.G ( ( F F F ( } ) ) ) ( ) ) ) } |  .) ) ) ( L I ( N h N v k F 7.| 3.} ) ) X.o.| i 8 7 V { o.| ) } ) G F B B B F o.I b 2 i L O.` ( F j ",
"( 3.) ( +.G h N F G ' ( B j Z D ( ( ) ] L K j v A V k l C F G ( J G ( ( _ { } } } } } | }  .) ' | | 3.o.5.&.A 8 0 u j (  .} ) } | | } | | | ) ' ) h h ' | ` ) q.F ( X.( N i u i x 7 4 7 u B ( ' ] F j ",
"` 3.) ( 3.( N G G ` ) ( K N Z B G G ( ( G N j j } ( G ( ) ) ] ' F G ( ( G G ( X.} } } } } } ) ] } ) ) ) } ] B h g h B { +.} } X.) } } } | } } ) _ B N ' | } } 0.N F ' ' F B N B d u a a h N [ ] X.G N ",
"( 3.) ( 3.} H X.( ) } ] G H B B ( ( ` ` ( F B N 3.| } } X.' E z B G ( G F F G X.) } | | } } } ) ) _ _ ( ) X.( F x Z G { } ) )  .` ` ) } | } } } J ( ' ' ` | | ) j B ( ` ( ] ) } u h A P j S I ] X.' K ",
"C ] ( F o.} L o.( ) } } ' H K F  .} } X.+.` ( [  .) ( ( F h 2 $ N F ' ( F B G ' } } } } } X.} ) | } _ ( ) X.} ] B K G ] } ( ( ` ) ) } }  .} ) ) C O.o.H H | 5.( B G ) ) X.` } } p N -.] B k H ) } ( F ",
"a L H B }  .G } ) } | } ( F K ' } } } | o.| } o.` ` ( G F h 1 # B G ( ] ( F G ( ) } } } } ] ) ) 4.| ) ) ) ) } ) F K '  .) ) ( O.| | } } ) ( H B j } 5.G B ] X.G ) } | } ) ` ` } S G 5.o.F j G ) ) G F ",
"8 A D V } } G )  ...o.} ( F G G } ) } | | } } | | } } | } L j 0 F ( } } O.[ G ( ) } } } ) ) ( ( 6.3.) ) } ) ) ( K G ( ( ( ( ( ] 3.| } ) G F N j N ( | G N A ' ( } | } } ( ( ` ) J ) 5.3.G G { } } _ F ",
"u Q P B } | _ } ) } | } ( G F G _ ( G ( ` ) } } 3.o.| | 3.o.) G ( ) | 3.} ` ` ) } } } ) ) ' H K { G F ( X.} ( ( G G G G G ( ( ( ) ) ) ( ( G F B B J ` ) Z z N ) ( ) } ) ( ( ) } | } }  .) } | } 3. .' ",
"s ~ K F | | ` 3.) } | } ' I G G C N B F J G ( ) ] ` ( ) } | } ) _ } 3.3.} } ) ) } ) ) ] ' G F C V h h F ] X.( ' I L ( G ( ` ' ' H G G ( ] ) ] ' L H _ ) N w k ) H ' ] X.) ( } 3.4.} ` ` } | | } 3.| } ",
"} ) } } ) ) ( ( ( { G B B I ( G h N J ` ( ( G F ) ) ) ) )  .} ) | ) ) | 4.7.4.} } } } ) ( [ K N ! 7 * 7 Q o.} G J } | [ [ } ) ! G k ( 5.( B ( ) ( ( ( G ( ( G ( } ) ) ) ) ) } | | | } ) ) ) | | } } } ",
") } } } } ) ) ( ( ( G B F I [ ( F ) 5.3.( F G ' } } } ) ) ) ) ) } X. .] ` ( ( G ) }  .} ` ] ( G W w 1 8 L o.) G J } } _ G ) ( C G h H 5.G F ( ( ` ( ` ( ( ( ( ( ' ( ( ) } } } } | } } } ) } } } } } } ",
") } ) } } ) ) ( } ( G G F G G G _ ` } ) ( J I L } } } ) ) ( ) ( ) o.;.L l p i N _ ) ) ) } X.) ( A u 2 a L X.) ( G } } G G ) ( B F a B o.( H ( ( ) ) ) ) ) ) ) ( A F ( ) | X.] ' ) } } | | } } ) } } } ",
") ) } } } } ) ) o.} ) ' G G G G @.( G ( X.>.-.] } } } ) ) ] ( [ G o.o.G u 2 d K ) ) ) ) ( ) ( ( N i i N ' } } ( } | } ) ( ) ` G G a N X.( H ` G ( ( ) ( ( ` ( ` l N G } o.} ] L ( ) } | | | ) ) } } } ",
") ) } } } } ) ) +.) ) ] ' G G ( } | 3.X.' K ] 0.( _ ( ) ] ) ) ' G | 4.) j h K ;.} | | } ( ( G F F N V J ) X.] ] o.} ) } } }  .) ( p l O.' G ) G G G G G G G G _ i j ( } } ) ( G ) ) ) } } o.} ) } } } ",
") ) } } o.} } } ) ) )  . .( ( ` B } ;.Q = o = h N B F G ( ) ) ` G ) | } G G X.q.} ..o.} ) ) ( F ( ( _ ) } } ( G 5.( G } } ` ) | X.a h ] ) ( ) G G F G F G F F F j F ' X.}  .( ) ( ( ( ( ) O.} } } } } ",
") ) } } } | } } ) ) ) } } } } } D k 0 t - $ * 4 u h V G ) ) } ) B G ( ) ) ) G G G `  .} } } } ) `  .} | } ) G K ] B N )  .F G 3.;.u i ] ` ) } ( ( ( ( ( ( ( G ( ' ( ` } } } o.} ) ( F B H ( } } } } } ",
"( ) } } | } } } ( `  .} } } | } 0.2   * 2.t.;.S 7 p j F ]  .} | B K P #.-.] B i N F ( ) } 3.3.3.} | | | } ) L P ' i i G ' B F 3.o.u u ( ) } o.` ) } ) } } O.X.| ;.) ( ( ) } } } ) G N N B G ) | } } } ",
"| | | | } } ) ) ) ) } |  .` ) } K u 2 u H ] ) _ ] - 7 3.} C ' } x 3 o.J F 0.r i i K 3.5.) _ ` O.| |  .} } G V u [ ' ) G N j G X.&.j 8 c %.X.} ` ( ( ( ` ` ` ` ( 3.` _ | } _ _ | } G V N G | 3.o.( ( ) ",
"} )  .) } } } | ) } | | } ) } | ] K F ' O.3.| } -.B G | o. .+.) K - ) ( N <.K c f P o.4.} ) ) | | } ) } ) G N i ( I J H G ( ( G } N i j ' } ) ` ` ( ) ) } } } ) | ` _ } } _ _ | G F K ( | 4.} G | | } ",
"( ( ( _ ( ) } | } } | } } } | 3.L $.o.q.o.| | 3.) 5. .G ) ) A h q.j J F = = * @ 7 l ' 3.| } | 5.} ) )  .} ( B j G N k D O.;.] F ) F j j F ) ( G G G G G G ( ( ( } _ ( | | ( _ | ` ( G ) 3.4.} J 6.4.3.",
"} ) ( ( ( ) X.o.| } ) } } }  .) a Z ' ) G F ( ..G 4.( j G N 2 2 k B m k = X * = 7 N ( } } } 3.3.) ) ( } o.} L H B N j N K L K C ) [ I A G ] { I ` _ _ ( ` ` ] }  .) } 3.3.} ) } 7.} B B ( | | | ] ] ] ",
"5.3.o.) ) ) } +.} G F G ' ] G B 3 i F F B B _ | ) 3.( H X.Z 1 f 0 ( ( $.w % Q ,.F _ O.} } ) ` ) ) ) ) ) | | ` ( K K G B i u i h ( ' L B B L L G o.} } } } } o.5.} | o.o...o.| | 4.) B N ( } } ) p p k ",
"+.O.o.o.} } } ) L Z i k P K j 8 7 h C G G (  .o.o.} ) } q.G h Z f A ( ;.- o ] &.} | X.} ) ( ( G } ) ) } | | ) ( B ' X.( j u u h 2 9 4 3 ; 3 3 3 B B N N N B F F } 3.o.' ' +.3.} G B B ( | | ( B i h N ",
"k B ( X.3.3.} ) x w 1 7 d z 7 = B B N N B L F B B B G ( G } ( u + > 7 B 9 7 6.3.| } } ) ) } } ` o.} ` ) | | } ) G ( ) ] ' H F G ( ( ) ' L G ( ] V l l n a h V C ) 5.] h h ( X.J C j Z F } } G B G ) X.",
"= 7 N ) 5.3.| } s 2 * * w w 6 $ X.H a 8 i j z 7 4 8 B a 0 ] o.- 7 7 u / =.(  ._ |  . .} | 3.| } | } ) } | 3.| } +.' G } 6.8.5.` | | 3.3.o.} | 3.o.o.o.X.X.} 5.6.) 5.L 7 1 N G N ] A i i B ( X.$.Z N B "
};
