/* XPM */
static char *result[] = {
/* columns rows colors chars-per-pixel */
"64 64 247 2 ",
"   c #180701",
".  c #110A00",
"X  c #2E0200",
"o  c #390800",
"O  c #4B0400",
"+  c #450D01",
"@  c #420601",
"#  c #530100",
"$  c #5B0201",
"%  c #570C02",
"&  c #491103",
"*  c #561408",
"=  c #630301",
"-  c #6A0301",
";  c #660B04",
":  c #740302",
">  c #7B0201",
",  c #730A01",
"<  c #7C0B03",
"1  c #780B0C",
"2  c #691105",
"3  c #6A170C",
"4  c #79180B",
"5  c #582811",
"6  c #523114",
"7  c #65260E",
"8  c #692A13",
"9  c #752A12",
"0  c #792813",
"q  c #6D3414",
"w  c #6B3119",
"e  c #763516",
"r  c #7C210E",
"t  c #774C1A",
"y  c #830301",
"u  c #8B0101",
"i  c #830C04",
"p  c #86050B",
"a  c #8C0A08",
"s  c #940302",
"d  c #9C0302",
"f  c #950B05",
"g  c #9C0B04",
"h  c #9D010A",
"j  c #940D0A",
"k  c #9D0D0B",
"l  c #930009",
"z  c #86150A",
"x  c #8A1B0D",
"c  c #88170B",
"v  c #94140B",
"b  c #9B140C",
"n  c #941B0D",
"m  c #9C1B0C",
"M  c #991305",
"N  c #8E0B12",
"B  c #831D11",
"V  c #8B1B11",
"C  c #941C13",
"Z  c #9B1C12",
"A  c #9B1A1A",
"S  c #930E11",
"D  c #A40202",
"F  c #AC0303",
"G  c #A50A04",
"H  c #AB0B05",
"J  c #A4030A",
"K  c #AC0309",
"L  c #A40C0B",
"P  c #AC0C0A",
"I  c #B30102",
"U  c #BA0203",
"Y  c #B30B05",
"T  c #BA0B05",
"R  c #B4040A",
"E  c #BA030B",
"W  c #B30C0A",
"Q  c #BB0C0A",
"!  c #A31406",
"~  c #AC1106",
"^  c #A4140B",
"/  c #AC130B",
"(  c #A41B0E",
")  c #AC1C0D",
"_  c #A21907",
"`  c #B21107",
"'  c #BA1107",
"]  c #B3150C",
"[  c #BA140B",
"{  c #B31B0D",
"}  c #BB1B0E",
"|  c #A80915",
" . c #BB0312",
".. c #BB0D13",
"X. c #B60011",
"o. c #AD1412",
"O. c #A51C12",
"+. c #AC1D12",
"@. c #A51916",
"#. c #B31411",
"$. c #BB1212",
"%. c #B41D12",
"&. c #BB1D12",
"*. c #B41C19",
"=. c #8C230D",
"-. c #86250F",
";. c #93210E",
":. c #9A240F",
">. c #932A0F",
",. c #9C2A0F",
"<. c #842410",
"1. c #8C2311",
"2. c #842B13",
"3. c #8C2C12",
"4. c #8D2519",
"5. c #942313",
"6. c #9B2412",
"7. c #942C14",
"8. c #9C2D13",
"9. c #9A2C19",
"0. c #863213",
"q. c #8D3313",
"w. c #843A17",
"e. c #943515",
"r. c #9D3315",
"t. c #9B3B19",
"y. c #993816",
"u. c #9E320E",
"i. c #A3240E",
"p. c #AC220E",
"a. c #A82C0E",
"s. c #B3240E",
"d. c #BB220E",
"f. c #B42A0E",
"g. c #BB290E",
"h. c #A42312",
"j. c #AC2312",
"k. c #A32C13",
"l. c #AD2B14",
"z. c #AC2C19",
"x. c #A52818",
"c. c #B32412",
"v. c #BB2413",
"b. c #B42C14",
"n. c #BB2C14",
"m. c #B22C19",
"M. c #BB2D1A",
"N. c #B82318",
"B. c #A33414",
"V. c #AC3315",
"C. c #A53B16",
"Z. c #AB3B15",
"A. c #A43419",
"S. c #AC331A",
"D. c #A4391A",
"F. c #AC3B1B",
"G. c #B43315",
"H. c #BB3315",
"J. c #B43B15",
"K. c #BB3C16",
"L. c #B4341A",
"P. c #BC341A",
"I. c #B33B1A",
"U. c #BB3B1A",
"Y. c #BB320E",
"T. c #A10021",
"R. c #A63723",
"E. c #B83622",
"W. c #B02E20",
"Q. c #C30103",
"!. c #C3020B",
"~. c #C20D0B",
"^. c #C90306",
"/. c #D6020B",
"(. c #C9150D",
"). c #C80414",
"_. c #C21D12",
"`. c #C71C18",
"'. c #C4210E",
"]. c #C22412",
"[. c #C32B14",
"{. c #C32C1A",
"}. c #C92818",
"|. c #C13215",
" X c #C13419",
".X c #C23A1B",
"XX c #C93919",
"oX c #E10028",
"OX c #C92B21",
"+X c #C53A21",
"@X c #8E581D",
"#X c #914618",
"$X c #A3431C",
"%X c #AC411B",
"&X c #AB491D",
"*X c #A44417",
"=X c #BD4217",
"-X c #B4431B",
";X c #BB431A",
":X c #B54C1C",
">X c #BC4B1B",
",X c #B64716",
"<X c #B4541C",
"1X c #BD541D",
"2X c #BC5A1E",
"3X c #B55C1D",
"4X c #A6531C",
"5X c #A96B1F",
"6X c #BD611E",
"7X c #BA691F",
"8X c #B44321",
"9X c #B35420",
"0X c #BD5320",
"qX c #BE5D21",
"wX c #AD5B23",
"eX c #9F6321",
"rX c #AB6A23",
"tX c #BB6421",
"yX c #BD6B23",
"uX c #B46721",
"iX c #BF7122",
"pX c #BB7624",
"aX c #AE7023",
"sX c #C2431A",
"dX c #C24B1B",
"fX c #C14816",
"gX c #C2541C",
"hX c #C25C1E",
"jX c #C95C1D",
"kX c #C4631F",
"lX c #C46A1F",
"zX c #C9671F",
"xX c #C44B21",
"cX c #C15720",
"vX c #C35C21",
"bX c #C75725",
"nX c #C36422",
"mX c #C86524",
"MX c #C46B22",
"NX c #C96C21",
"BX c #C57323",
"VX c #CA7323",
"CX c #C57B24",
"ZX c #CA7B25",
"AX c #C77428",
"SX c #CA8225",
"DX c #CA8527",
/* pixels */
"U F F F I R E F R U U U I U T F U U U Q.E D a U U F G s u u l U U U Y I U U U I F I F I I I I U I U I U U U I F F F I R R I F D ",
"I I F I F I F F F F I U I F F Y F D D F F s > U F F H g f k ( ] Y H Y Y Y Y T U I U U F I I I U I I I I I I I F I F I I I F D F ",
"F F U R F d s D D F I R I I I F D s s D F d u H ~ { n.H.I.-X:X-XJ.V.f.H.K.H.s.` Q T I U I I I I I I I I I I I Y I F I I F F d D ",
"F I U U F s y s d D F I U I U U F s s D W / p.J.>XhXmXNXBXiXMXBXBXlXkXhXnXBXBXhX;XH.d.' U F I I I I I I I I I U U U U I I J D F ",
"F I U I D s y u s D F D F F U Q.U H G { U.>XhXMXBXCXZXZXVXlXlX7XkXMXNXlXZXZXSXSXZXBXgX=XH.s.` I F I I I F I I U U U R I F F D F ",
"F F I I D d s s D H I F D F I U T { U.hXVXSXSXBXhXgX=XsX=XG.Z.-X;X;X>X=XgX2X,X<XlXZXVXMXkXdXH.[ Y I I F F I F U F I I I F F D F ",
"F Y F D D D F J K F I I I F F ` s.;XlXDXSXVX6X>XH.b.) p.b.) ^ O.z.N.c.j.:X&Xk.:.F.>XgXlXZXMXvX>Xs.Y F Y I I F I F I I I F D D D ",
"I F G D D F E D D D F F Y Y p.dXnXMXZXVXvX-X8.c.Q N.j.l.l.s.{ ^ c.M.c.s.;X:XB.>.k.z.M..XgXzXVXMX1XG.{ Y F I I D F F U R E R I D ",
"F G D F I F F U F f l f H n.dXVXZXNXjXU.L.V.k.{ ) / ( ( ( ( P.M.C.&X8Xz.t.*XU..XJ.L.I.l.j.l.2XBXBX7X3X7.z z N F F U Q.^.U f - d ",
"D F I U U U H U s : : L P.cXAXZXkXsX.Xv.L.I.l.c.c.c.b.k.k.l.H.n.A.A.V.V.8.B.I.U.H.G.F.G.m.j.L.:XnXSXSX7Xe.i > D F U U U U s > F ",
"H R U U Q.I F Q.u ; 4 J.vXAXAX>XY.H.U.] ) b.V.b.b.b.G.V.k.k.G.n.l.l.b.z.k.k.b.G.b.V.S.G.m.l.c.l.G.gXSXDXtXr.v F F H Y I U J d F ",
"F J d k K U U U D c C.6XZXVX2Xf.n.J.L.] ] c.m.G.n.H.b.l.i.k.Z.L.I.L.H.m.l.l.j.l.l.V.l.V.L.L.L.G.n.|.gXCXCXtXJ.Y D G D F I R F U ",
"d u - 2 z E /.Y ` .XlXCXMXgX[.b.K.;Xb.s.b.b.M.k.L.H.H.G.k.A.A.V.G.G.b.G.b.l.l.l.i.l.l.L.G.L.U.;XU.|.n.gXBXBX2XH.G s s F I U I I ",
"J y # @ = J /.G ].zXZXBX,Xd.}.J.U.K.b.G.c.M.M.8.l.U.J.J.C.8.;.k.c.v.p.f.H.J.%XD.k.i.G.n.n.H.P.P.H.n.d.g.gXBXBXhXa.s d F U I I U ",
"P h : # = u U ~ 1XSXSXfXc.v.H.K.H.H.c.+.j.M.M.t.%XI.M.j.Z Z 1.B.G.{.p.p.&.N.r.$X-X-Xb.c.s.v.M.b.} ' [ n.H.hXVXlX:X_ J R I I F I ",
"D X.| p 1 a o.H.6XZXgX|..X;XJ. XH.n.l.) l.L.L.3.D.c.] ~ O.A 9.t.G.M.l.) Q / z 6.S.S.L.U.n.} v.b.v.} } J.H.K.gXZXBX-X/ R I F H K ",
"D f y > u L ].0XzXkXZ.H.XX:XXXM.H.n.g.n.G.8.7.*.#.H P / o.+.O.k.l.l.+.*.W R U ! / *.l.r.3.3.6.v.H.b.n.H.n.H.,XkXCX3Xc.W R I F F ",
"I D u > y m 8XmXzXXXG.P.XXC.{.v.v.n.b.U.c.O.C / F F D J ^ @.D ^ i.^ H #.o.W I Y Y [ &.O.5.A.W.{.H.M.M.n.n.K.J.,XMXMX;X} U F F F ",
"E I d y i A.cXMXgX'.L..X X8.OXv.c.l.-Xj.#.c.*.H H H / ) j.^ H ! ^ G G ! j.j./ Y U Q &.c.+.N.U.n.c.c.s.M.U.b.) G.hXZXMXJ.Y I I F ",
"U R D d i.<XMXrXy.v.H.+XH.7.OX_.G.C.i.l.U.P.n.) *.c.I.J.l.%.j.p.p.) ( ) l.I.J.c.} &.n.H.P.N.v.H.f.] { n..Xc.! b.;XVXDXnX{ F I F ",
"F F Y G G.vXAXrX&XxX-XL.B.9 x.P.Z.5.c F.I.M.] W ] N.c.N.c.c.p.c.) +.+.) j.p.j.j.) P ] v. X.X] v.L.f.c.v.{.c.) v.G.kXSXiXG.Y I I ",
"d F U ] ;XMXmX>XU.xX%XF.8.q 9 E.k.c =.C.z.c.] T ] %.c.&.] ` L { c.) / ~ ^ ) j.n n f ( c.].U.j.] f.L.s.M.|.H.G.N.n.1XCXCX,XW I U ",
"D I U s.1XMXhX+XM.G.C.L.m.e e U.j.m Z x.] ] ] ] &.{ { Y Y F ` s.G.s.Y H F ] { V V V ( } [ v.s.] s.G.b.|.{.K.;Xn.N.J.kXSX2X{ Y U ",
"D U T G.MXBX<X{.6.8.e.P.}.3.$XM.*.@.| *.E T } %.&.v.W H Y } g.f.J.H.g.} T Y ] 5.V 5.@.!.Q.} ] / p.l.U.v.v.K.U.[.].H.hXBXtXb.P U ",
"d D Y ,XCXiX$Xm.1.#Xt w.>.8.I.9.A p - 5.$.(.&.&.M.c.] s.J.K. XM.v.].H.U.J.{ ` s.b.} #.} Q { H U [ {.;Xl.V.G.H.n.K.dXgXkXkX:X~ I ",
"F Y } vXSX6XC.v.j.R.A.8.7.w.t 4 2 - > 8.k.) &.&.} G.K.K.s.Y Y ` Y I ` ) i.%X8Xb.c.j.) { v.v.H F P j.I.P.|.H.b.H.;X=XK.fXBXgX) I ",
"U Y g.MXSXjXb.) z.R.W.}.M.%Xw.3 + O a F.7.Z %.` ' .XK.} T F F D G F P f i ;.-X;X~ M O.{ v. X~ T G n m.sXXX[.G.H.J.G.s.sXVXlXs.I ",
"U H G.NXZXfX{ v 2.w.q.h.}.+XN.* * 2 5.E.:.n ^ F { K.d.U I Y ~ c.j.{ / M > > :.I.i.s L } _.H.{ T L m 9.-Xm.n.H.b.K.H.b.K.VXzXg.Y ",
"I ~ J.2XNX=Xj.].5.w e 4.b. X) * 4 A 6.x.*./ f ` .Xg.W K W c.f.H.L.M.M.x.f y k c.Z.g G ] &.].d.` W / 1.w.9 :.{.G.K.-XY..XzXzXH.Y ",
"F G G.cXkX,Xr.+X4.w e 9.U.G.C 3 A *.v O._.$.f ' sX~ D d @.I.G.s.` { L.I.@.k J ^ Z.M b ] &.} Q { _.&.;.q q e.{.g.H.=XG.K.zXlXK.` ",
"F P b.cXhXk.x 7.7 6 9 x.{.d.h.r.j.J d ) N./ P '.H.k y i A.L.W d F Y ~ z.x./ F L r.=.a v ( ) | H v.P.h.>.e.C.H.H.K.=XK.K.hXlX=X[ ",
"I W H.mXmXk.z 5.* 6 w R.|.].V.P.S.Z ` N.h.O.M.|.n.M > B D.c.U u L P D O.l.c.F S 3.0.3.x V m Z p.b.H.M.b.L.Z.V.[..X>XH.K.jXlX-X` ",
"Y ~ I.MXnXl.k 5.:.9 w A.P.b.L.S.G.} ' %.{ f.H.K.f.H H h.I.{ F J d s s n V.j.I L s.Z.y.i.} %.v _.H.L.F.k.y.r.D.G..X;Xn.n.mXMXG.T ",
"I ` -XMXnXV.b n z.0.e F.OXs.l.L.c.[ T d.) ) s.G.f.G D p.S.s.H J D d d i.V.) R W a.u.a.g.{ O.^ [ n.P.G.k.B.r.r.B.J.P.N.P.mXkXn.G ",
"U ~ ;XMXmXZ.O.8.m.e.w.A.M.h.O.b.%.T E { p.^ H s.G.H F P c.L.` F D D ^ F.l.P I ..y.;.Q ~.( ;.L Y %.m.c.j.A.k.7.y.Z.G.b.;XMXgXn.H ",
"U ` J.MXlX-XS.F.L.k.2.k.H.b.c.] &.&.[ c.( ^ F ] -X~ D P j.L.L.j./ j.S.F.+.F F / C.b ..W m n @.) { [ &.L.S.8.8.k.F.J.m.;XmX1XH.~ ",
"I P L.MXVX;XS.D.M.l.3.a.M.J.b.] Q $.N.b.h.^ G Y Y.f.! F / { s.m.L.L.b.c.P F H ,.U.$.| b O.l.k.~ Y [ v.+Xm.l.8.H.U.;Xb.K.lXgXL.` ",
"D L V.MXBX:Xl.6...N.r.l.n.U.N./ R W %.Z.h.) ] Y { J.s.G F F H } N.) H D d d i.y.#...c c j.E.j.G Y ] v.U.M.j.l. XL.:XG..XZXmXG.Y ",
"s g a.2XBX1Xb.1.$.c.B.G.|.U.M./ D F L V.h.j.%./ P J.Y.f.P Y F Y I F D D g i.V.r.k j V B 5.L.Q U U } G.;XM.M.n.k.;.D.F.gXSXlXs.T ",
"u u ( qXVXhX-Xy.m.l.6.b.n.J.U.h.L D g 6.@.O.%.j.s.b.J.J.f.` Y T T Y W / l.-XF.V.5.V V 4.2.h./.U Q N.I.H.n.n.v.B 2 <.*XNXZXgX~ I ",
"D F o.:XyX7X$XS.9X$Xe.B.l.l.,XA.^ D G j.+.#.%.{ c.v.' ] H.-XG.[.[.[.XX.XE.5.2 0 r c O.%.T ) T U [ n.sX].n.H.b.s.=.1.;XVXVXJ.).g ",
"d D F B.wXyX*XN.U.J.V.b.c.b.E.k.( ^ G ( G F #.{ { %.` T Y ] s.g.G.f.{ [ P l 1 2.B :.+.Q Y { ] ] { n.U.v.N.n.b.G.D.9.1XVXMXb.E y ",
"F F H ) <XBX3X].M.H.K.M.m.9.4.r.h.O.@.6.v +.*.] } } [ ] T K H c.J.a.G H R ^ Z 4.C b c.&.] b.s.) c.G.M.n.n.n.n.B.L.E.vXVXcXd.R > ",
"F I T ` ,XCXBX=Xc.G.G.V.7.0 7 A.k.+.j.S.i.h.O.Y ] } &.} ] ] P v.c.p.~ ` #.%.%.C Z k { %.j.G.%.} b.L.&.P.n.b.%.,.N.dXyXyXU.[ D a ",
"I U U U K.lXSXkXb.l.V.Z.e.8 5 u.S.l.#.S.V.h.^ Y W c.c.c.N.{ %.(.[ { / { c.%.c.h.k P { c.V.H.c.v. Xn.{ b.l.6.m x v.bXBXtXP.X.d H ",
"F F U U [ jXZXVX|.d. XU.L.7.r m l.I.n.b.I.I.l./ } c.G.P.l.+.O.`.} { ) { b.G.S.h.b @.c.L.G.c.m.P.H.} c.l.m n z a J.zXyX&X6.h D R ",
"d d D G F G.nXVXjXd. X.X{.b.p.l.s.[..Xn./ ) ) Y H R W ) h.! f o.^ g G #.c.+.^ l g f O.( ( l.I.b.j.c.b.j.O.6.n m 3XzXqX8.1 i F D ",
"u u s d G / -XnXBX,XH.H. Xn.b.b.n.[.'.H.b.{ { ] R I F L Z Z v =.B z s +.#.P d k L O./ ) l.L.b.V.l.l.b.+.c.*.+.F.yXMXI.C $ : I l ",
"y g F D D d ,.2XZXkXK.H.K.K.n.[.M.c.} [.}.[.v.} [ T F H ^ Z 5.9.2.5 3 A ..Y ! M ] &.z.S.m.m.x.l.y.S.}.! :.p.f.hXnX<Xp.G D D D F ",
"F ^.Q.D s d / K.BXVX>XH.b.M.b.|.].M.M.%.f.G.V.b.b.{ ] ] +.@.l.R.0.e 0.A ..` _ i.M.n.L.I.b./ B.V.e.k.].O.,.G.1XZXqXb.L D D D D J ",
"F I F d g j g [ >XlXVX>X{ O.U.J.{.E.F.8.-.=.7.J.U.J.b.c.c.#.j.9.0.9 <.O.%.*.V.J.U.U.l.l.c.j.B.Z.e.Z ../ i.1XZXZX:X{ J F D F D a ",
"D d D R  .X.R W d.1XBXMX>Xb.0XG.v.M.-X0.9 7.z.c.s.M.H.I.G.b.l.6.3.2.7.L.P.U.-XH.[.v.b.l.N.b.F.I.0.>.M.L.<XkXBXvXs.D F D F F J > ",
"U Q. .J l | ).d ! b.gXBXlXcX>Xl.&.}.L.y.e.S.OXv.d.{.v.s.l.V.a.B.k.r.V.b.M.n.L.|.n.v.n.n.H.M.c.c.2.7.E.cXlXMX3Xa.g d d d d d G = ",
"F E S o   o > y u g V.2XBXNXhXI.n.v.&.) k.M.}.M.{.].v.{ s.f.l.b.L.L.b.n.c.c.L.{.G.l.n.{.U.;X|.N.2.#XcXMXMX2XV.g d s s d s s d > ",
": % o o X X & = - y M G.hXVXZX6X-Xb.N.#.+.O.h.j.b.n.n.n.n.v.n.n.|.|.{.n.M.z.A.P.8.8.U.U.Z.-XdXE.#XuXBXMX1XH.~ D D D D d D D d J ",
"# . X T.oX .i # = > s / H.kXZXCXyX9XE.N.#.n r C M p.c.M.{.[.[.n.[.[.[.n.H.F.S.E.e.7.I.U.k.V.dXbXpXCXMX0Xb.Q H F F I R I R R E E ",
"- O = a F F D J o $ Q.I M b.>XwXrXNX6X%X`.8 <.r @.~.(.{ j.L.N._.[ g.H..XG.r.q.-X;XU.F.8.=.V.nXAXpXaX4Xz.W I F G D D D F H F D Q.",
"l s L E !.U U R u s U U F W / k.@XMXMXtXbX%X3.7 C ..(.} c.H.].[ } K.>XH.l.6.<.l.V.A.V.:X6XVXBXMX9Xy.x L U I G F D F F I I F F U ",
"K E !.!.U U Q.F !.I d F K p : ).>.,X9XrXaXeXt @Xy.b.'.v.g.|.'.{ c.G.g.g.c.k.7.l.C.4XuXBXSXDXqX;X6.z > s D D d d d d d D D D D U ",
"p K F s s D T d ^.G > d u O O , u -.0.@X@XeXaXpX7X2XgXdXfXsXXXK.=XK.Y.|.sX1X<X<XtXiXCXCXlX3Xr./ L v a h K H G J F D G G F F Y Y ",
"- u d u u G U I Q.d s E y @ ; % J D | 4 6 R.xX7XlXBXZXZXVXMXMXzXlXlXzXVXZXCXCXCXMXtX<X$X2.4 : D J h u u h h s U R U I U R U !.I ",
": u d d D I U E U D U ).h : p ; p D !.o   o.c.f.K.dXkXkX1X1X3XMXlXMXlXBXBXBXyX3X-XH.O.< ; - : O % & + o + + + u u y > y u s s I ",
"u y y l h s u p u d d d R J =     # l % $ /.T U T Y { f.b.b.b.b.G.K.=XK.Y.b.p.! G H K D d s s D F F J h d J D y < < , - , y a F ",
"a , $ - > : $ + $ u : % K X.o # # $ C | D Y D U Y Y T T ~.T T T W ~ ' ~.~.T Y E K G F ^./.E F U U Q.Q.E R U ^.Q.E R R F R !./.F "
};
