/* XPM */
static char *result[] = {
/* columns rows colors chars-per-pixel */
"64 64 252 2 ",
"   c #000001",
".  c #090604",
"X  c #0C0A05",
"o  c #0E0D08",
"O  c #120E05",
"+  c #120E08",
"@  c #170500",
"#  c #151106",
"$  c #1C1505",
"%  c #161209",
"&  c #1B1509",
"*  c #1F1908",
"=  c #001000",
"-  c #260902",
";  c #340200",
":  c #3A0100",
">  c #3B0A00",
",  c #360D02",
"<  c #231C0A",
"1  c #291E09",
"2  c #27210C",
"3  c #2B220B",
"4  c #2D270A",
"5  c #31260D",
"6  c #352B0D",
"7  c #3B2E0C",
"8  c #3D310D",
"9  c #342A11",
"0  c #392B11",
"q  c #3F3313",
"w  c #2D2210",
"e  c #4C0500",
"r  c #440D01",
"t  c #410601",
"y  c #530100",
"u  c #5B0201",
"i  c #540D01",
"p  c #580B05",
"a  c #481102",
"s  c #640301",
"d  c #6B0300",
"f  c #640901",
"g  c #6A0A06",
"h  c #740201",
"j  c #7B0201",
"k  c #730A01",
"l  c #7D0800",
"z  c #77090A",
"x  c #6C1203",
"c  c #7E1602",
"v  c #43340C",
"b  c #4A390E",
"n  c #58370E",
"m  c #452D13",
"M  c #433411",
"N  c #4D3C14",
"B  c #473A15",
"V  c #543B15",
"C  c #563E18",
"Z  c #422B0C",
"A  c #633C0D",
"S  c #673E17",
"D  c #74350E",
"F  c #59470E",
"G  c #5E4B13",
"H  c #584415",
"J  c #72460E",
"K  c #69540F",
"L  c #634414",
"P  c #614C15",
"I  c #6E4D1A",
"U  c #6A4618",
"Y  c #784818",
"T  c #655214",
"R  c #6A5613",
"E  c #6D5914",
"W  c #6F5619",
"Q  c #765818",
"!  c #785F0F",
"~  c #7A6315",
"^  c #7C6518",
"/  c #715322",
"(  c #830201",
")  c #8B0201",
"_  c #830B01",
"`  c #8C0A04",
"'  c #87080A",
"]  c #940202",
"[  c #9C0302",
"{  c #950B03",
"}  c #9B0B04",
"|  c #94020A",
" . c #9C020A",
".. c #920A0A",
"X. c #9C0A0B",
"o. c #991508",
"O. c #8E0B12",
"+. c #920714",
"@. c #8F1513",
"#. c #A40202",
"$. c #AB0202",
"%. c #A40A03",
"&. c #AC0B04",
"*. c #A4040A",
"=. c #AC030A",
"-. c #A30A0A",
";. c #AB0B0A",
":. c #B30102",
">. c #BB0103",
",. c #B40B04",
"<. c #BC0A03",
"1. c #B4030A",
"2. c #BB020B",
"3. c #B30A0A",
"4. c #B80808",
"5. c #AB1305",
"6. c #A5130A",
"7. c #AB1909",
"8. c #B21305",
"9. c #BB1305",
"0. c #B5150A",
"q. c #BD140C",
"w. c #B11D0A",
"e. c #BA1A07",
"r. c #A70614",
"t. c #BC0212",
"y. c #B60415",
"u. c #AA1C12",
"i. c #97280D",
"p. c #983E0B",
"a. c #8B3512",
"s. c #AB270A",
"d. c #B5220B",
"f. c #BA2309",
"g. c #B42B0B",
"h. c #BC2D0C",
"j. c #BC2506",
"k. c #AD340E",
"l. c #AB3B0D",
"z. c #AC3304",
"x. c #B5340A",
"c. c #BC330B",
"v. c #B63909",
"b. c #BF2915",
"n. c #AA3813",
"m. c #B93813",
"M. c #AA2810",
"N. c #A10021",
"B. c #C30103",
"V. c #CA0104",
"C. c #C3010A",
"Z. c #C9010B",
"A. c #D6000A",
"S. c #C21A09",
"D. c #CB0013",
"F. c #C30013",
"G. c #C91813",
"H. c #C1240B",
"J. c #C7290A",
"K. c #C5370C",
"L. c #C62B13",
"P. c #C63814",
"I. c #D92912",
"U. c #E10126",
"Y. c #884A0D",
"T. c #884915",
"R. c #984617",
"E. c #8A581A",
"W. c #995519",
"Q. c #A6460E",
"!. c #BB4A0C",
"~. c #AA4A1A",
"^. c #A94415",
"/. c #B64318",
"(. c #A55719",
"). c #B85318",
"_. c #B3560B",
"`. c #856917",
"'. c #8D7217",
"]. c #967A14",
"[. c #9B7C1A",
"{. c #967917",
"}. c #946A1D",
"|. c #A6621B",
" X c #B9721C",
".X c #8C5922",
"XX c #985A23",
"oX c #8E4E20",
"OX c #AD5420",
"+X c #AB4C20",
"@X c #B56C22",
"#X c #C6480B",
"$X c #C9540A",
"%X c #C64B17",
"&X c #CB5B15",
"*X c #D3500E",
"=X c #D5680D",
"-X c #CF750E",
";X c #D87A0E",
":X c #CA6A16",
">X c #CE7C10",
",X c #D57712",
"<X c #CD680E",
"1X c #E17A11",
"2X c #C75820",
"3X c #9E8015",
"4X c #A38315",
"5X c #AC8B1A",
"6X c #A78619",
"7X c #B38C1D",
"8X c #BA961B",
"9X c #B99517",
"0X c #B89220",
"qX c #DF850D",
"wX c #DA8915",
"eX c #C49E19",
"rX c #D99513",
"tX c #CD8E12",
"yX c #E7970D",
"uX c #E28712",
"iX c #E59711",
"pX c #E4880E",
"aX c #CAA315",
"sX c #CBA31A",
"dX c #C9A417",
"fX c #D4AB15",
"gX c #D9AD13",
"hX c #D4AC1A",
"jX c #D6A818",
"kX c #DCB216",
"lX c #EAA70E",
"zX c #F3B40E",
"xX c #F5B90E",
"cX c #F9BD0E",
"vX c #EBAB12",
"bX c #E8A611",
"nX c #F2AE12",
"mX c #E5B915",
"MX c #ECBD14",
"NX c #E5B617",
"BX c #F5BC12",
"VX c #F1B314",
"CX c #F0B60E",
"ZX c #F4C30F",
"AX c #FCC50E",
"SX c #FFCA0D",
"DX c #EFC015",
"FX c #F4C413",
"GX c #F9C511",
"HX c #FDCA11",
"JX c #F3C616",
"KX c #FFD00E",
/* pixels */
">.$.$.$.:.1.2.$.:.2.>.>.>.>.4.$.>.>.>.B.>.*.{ >.>.$.%.] ) ) ] >.>.:.>.:.:.>.>.$.$.:.$.:.:.:.:.>.:.>.>.:.>.>.:.$.$.$.:.1.>.1.:.*.",
":.:.$.:.:.$.$.$.$.$.:.:.$.$.:.,.$.#.#.$.$.] j ,.$.$.$.[ ] ]  .>.:.$.$.>.:.>.>.>.:.:.>.:.:.:.:.:.:.:.:.:.:.:.:.$.:.$.:.:.$.$.#.#.",
"$.$.>.1.$.[ ] #.#.$.$.>.>.$.$.:.#.] ] #.$.[ ) $.$.$.1.4.=.*. .#.$.$.$.$.:.:.$.>.>.>.>.:.:.:.:.>.>.:.:.>.>.:.:.:.:.$.:.:.$.#.#.#.",
"$.:.>.>.$.] ( ] [ #.$.1.:.>.,.>.#.[ ] #.3.1.#.[ #.:.>.C.1.#.[ #.#.$.$.:.:.:.:.1.>.1.:.>.:.:.:.:.:.:.:.$.:.:.:.>.>.>.>.:.$.$.#.$.",
"$.:.>.:.#.] ( ) [ #.$.$.$.$.>.B.4.$.%.$.>.>.$.#.#.>.>.>.2.$.] [ *.$.$.$.:.$.$.$.=.1.>.:.:.:.,.:.$.:.$.:.:.$.$.>.:.>.>.1.:.$.#.$.",
"$.:.:.:.#.[ ] ] #.;.$.$.#.$.,.>.>.:.$.>.1.1.$.#.$.:.>.1.:.#.[ [ %.$.$.$.$.-.[ ] *.1.1.>.:.:.,.:.:.$.:.:.:.:.:.:.:.:.:.:.$.#.[ :.",
"$.,.$.#.#.#.$.#.*.$.:.$.$.:.$.:.$.$.:.>.>.$.] $.1.1.#.#.$.#.#.[ $.;.$.#.*.} ) ) { *.1.:.:.:.:.$.:.:.$.:.$.$.:.,.$.:.$.:.$.$.#.$.",
"$.$.%.#.#.$.2.$.$.#.$.:.,.$.$.,.,.$.:.>.1.] j $.1.3.#.[ #.*.$.[ =.:.$.#.#.] j j ( *.=.>.:.:.>.:.$.:.:.$.:.:.$.$.$.$.>.1.>.1.1.[ ",
"$.%.%.$.:.$.$.>.$.{ | | $.>.B.>.>.>.>.:.#.[ ] ,.$.$.%.{ ] #.1.>.{ ` *. .l _ &.,.$.#.[ #.-.#.#.] #.=.[ ( ' ' O.#.$.>.B.V.>.] s [ ",
"*.$.:.>.>.<.&.>.] h h  .2.>.#.:.:.>.1.:.$.[ [ $.$.$.#.} ) [ $.$.) )  .] ( ( #.$.#.[ [ [  .#.#.#.$.=.[ ) h h j #.$.,.>.>.>. .j $.",
"&.:.>.>.>.>.$.>.) f x *.Z.:.{ $.:.>.:.3.$.*.#.$.$.$.#.] ) ] [ :.[  .*.*.) ) #.%.#.[ [ [ *.*.$.#.$.:.#.] ( ) ] $.$.&.:.>.:.$. .$.",
"$.*.[ -.*.>.>.B.#._ ) $.2.>.#.$.$.:.$.:.:.$.$.%.$.,.,.} { { o.5.7.7.0.;.6.6.&.%.%.%.[ [ #.#.#.$.:.>.:.-. .X.*.$.$.%.#.#.:.1.$.>.",
"[ ) d x ' 3.A.,.:.>.:.$.$.>.>.$.$.$.$.$.3.e.f.k.x.P.#X#X_.!._.$X$X$X#X#X#XK.z.z.z.s.7.5.&.#.$.:.1.>.>.#.#.#.$.>.#.] [ #.1.>.:.>.",
"$.( y > s #.A.*.>.V.B.#.#.:.V.:.:.$.8.e.h.P.%X_.:X,XuXuXpXrXyXyXyXyXyXyXyXqX-X-X$X$X#Xc.j.e.8.&.>.>.>.$.$.$.:.1.#.) [ $.>.:.:.:.",
";. .h y s ) >.#.:.>.>.>.$.:.B.S.f.P.#X&X,X1XuXrXiXlXnXnXzXzXzXzXzXxXzXxXzXzXlXyXbXyXqX;X=X*X#Xj.9.<.>.$.,.,.>.:.#.[ #.1.>.:.$.:.",
"#.y.r.' z ..=.,.$.#.&.B.>.5.u.K.%X:XwXbXVXBXGXGXSXSXAXAXAXSXSXAXAXAXAXAXAXAXAXAXZXZXcXzXnXrX=X$Xc.e.,.,.$.$.>.#.#.#.=.2.$.$.&.=.",
"#.| ( j ) *.C.:.:.4.{ q.I.^./.R.OX XjXJXHXHXHXSXSXSXSXSXSXSXSXSXSXSXSXSXSXSXSXSXSXSXSXAXZXgXtX|.R.p.x.S.q.$.#.$.#.$.$.:.1.:.$.$.",
":.#.) j ( ] $.1.<.Z.6.h.%XXXoX/ `.0XkXJXHXHXHXHXSXSXSXSXSXSXSXSXAXSXSXSXSXSXSXAXSXSXSXKXSXmX9X`.K Y.Q.v.j.8.} $.$.#.$.:.>.$.$.$.",
">.:. .) ( ) #.o.3.L.m.+XoXS m q / 0XmXKXSXSXSXSXSXSXSXSXSXSXSXAXSXSXSXAXSXSXSXSXSXSXSXSXSXMXaX! Z Z n J p.z.s.5.$.$.$.,.:.:.:.$.",
">.:.$.{ ]  .#.D i./.XX/ N 2 + % / 0XDXJXSXSXSXSXSXSXSXSXSXSXSXSXSXSXSXSXSXSXSXSXSXSXSXKXSXMXaXE < O < b J R.l.w.&.$.$.$.$.$.:.:.",
"$.$.&.$.#.=.q.T.oXoXU 0 < o . + P 0XmXKXSXSXSXSXSXSXSXAXHXSXSXSXSXSXSXSXSXSXSXSXSXSXAXSXKXDXaXK $   X & 5 n T.n.h.8.$.#.$.$.>.$.",
"} $.>.:.,.q.b.+XXXC 9 o       + H 6XhXJXSXSXSXSXSXSXSXHXDXDXZXZXZXZXMXxXZXKXSXAXSXSXSXSXAXkX4XF %       O 3 n T.Q.g.5.$.#.:.:.>.",
"#.:.<.:.u.m.+X.XC w o .       X 9 W 5XDXHXSXSXKXKXSXHXmXdX9XdXfXgXaX9XaXMXZXAXKXKXKXSXSXDX9X~ 7 X         O < n Y.Q.x.&.#.#.:.>.",
"#.>.>.4.M.OXXXC w o   .   .     & q ^ 5XfXmXDXZXGXJXDXhX[.`.'.{.].'.`.].aXZXZXZXZXZXMXgX9X`.v $             . 1 n Y.Q.s.#.$.:.>.",
"[ #.8.H.+XXX/ 9 + .             . % 7 G ^ 4X9XaXfXfXhX5XT 7 7 7 6 6 9 T 5XaXkXgXaX9X4X`.K 7 & X               X 1 L Q.z.z.&.#.:.",
"$.$.S.%XOX/ B %   .                 o * 8 G ! `.].3X{.~ 9 o         X 5 E {.3X].`.! K 8 2 X                     O Z J Q.v.9.$.:.",
":.:.H.2XXXC < .                       . O $ 1 5 6 q 0 w #           . % 3 7 v 7 4 3 $ # =                       . * b W.!.e.$.>.",
",.3.b.@X.X9 o .                                 = . . .                 . . . .                                   . 1 Q _.x.,.,.",
",.w./.|./ < . . .                                                                                                   < G W.v.S.,.",
",.g.~.XXH %                                                                                                         O b Q z.H.<.",
"5.m.~./ B %                                                                                                         X 7 J z.j.,.",
"q.L./.Y q o                                                                                                         X 4 A Q.h.9.",
"3.P.^.U 0 X                                                                                                         . 4 A Q.h.<.",
"8.m.n.U 8 +                                                                                                         X 4 A Q.K.8.",
"<.h.^.Y q O                                                                                                         X 6 A Q.J.5.",
"<.f.n.T.N +                   . % & +                                                     o & % .                   O v Y z.j.,.",
"4.0.k.W.H <                 . % 9 H 9 o                                                 o 4 H 6 & X                 O H Y.v.d.,.",
"&.-.M.W.Y w .               # 4 R '.E q & . X o .                             . o = . % 6 R '.E 8 #                 < W |.m.7.<.",
"]  .7.~.T.m &               * H 3XhX7X~ 7 % < 9 * o .                     . X < 4 2 % 6 E 5XhX5XG 2             . O 0 }.@Xh.8.>.",
") | o.k.p.S 0 o           . 4 E eXJXkX5XR B T ~ E F 3 O                 . 2 v R ~ G H E 3XhXDXdX~ 6 .           X 5 G OX&XH.:.,.",
"#.$.3.u.a.Y C & .         . 7 `.dXJXJXhX3X^ 5XhX8X4XT 4 O             o 2 F {.9XdX5X`.3XhXDXJXfX{.M .           $ H `.).P.0.D. .",
"#.#.#.} i.a.S m <           8 '.dXHXKXDXdX7XhXDXDXfX5X! 8 #         X 9 R 3XdXmXJXhX0XsXDXHXSXhX[.B .         % 8 Q |.m.f.:.2.( ",
"#.#.$.#.X.i.a.T.M %       . 8 '.dXHXKXGXmXNXDXJXSXZXmX9XR 6 X     X 2 G 5XkXFXAXHXJXkXDXGXHXHXhX[.B .     . # 8 I |.OXg.<.>.=.j ",
":.,.4.:.y.0.n.R.Y m < X     6 `.dXGXHXHXHXJXGXHXSXSXHXkX6XR 3 .   * H [.fXGXSXSXAXHXJXJXHXSXHXaX'.v .   X & q I W./.k.6.>.2.#.] ",
":.>.>.4.1.:.e./.(.I V < . . 4 R 9XFXHXSXSXHXSXSXSXAXSXZXkX4Xb $ % q '.dXJXSXSXSXSXHXSXHXSXHXJXeXQ 6 .   & M W W.).L.} ` =.1.[ $.",
"$.$.>.>.>.>.<.S.m.(.T.H 9 * 2 N {.NXHXSXSXSXSXSXSXSXSXSXJXdX~ B q R 9XMXAXKXSXSXSXSXSXSXSXHXmX4XF w & 9 V Y T.R.f.S.[ ) |  .[ >.",
"[ #.#.$.,.$.:.B.S.P.).W.I Z w q `.jXJXAXSXSXSXSXSXSXSXSXHXNX6X^ ~ ].kXHXSXAXSXSXSXSXSXSXSXJXkX'.M 9 q U .X(.l.i.%.&.$.( g ( $.#.",
") ) ] { #.*.$.=.;.w.x./.~.T.U G `.8XNXSXSXSXAXSXSXSXSXSXSXFXaX8X7XdXDXKXSXSXSXSXSXSXSXSXSXmXeX'.P U Y R.^.m.d.X.{ %.:.' u h $. .",
"( { $.#.#.] ] $.:.$.,.f.m.).(.E.}.[.jXBXHXHXSXSXSXSXSXSXSXSXMXNXNXMXGXSXSXSXSXSXSXSXSXSXFXhX7X}.Q W.%Xk.i.,.#.#.#.#.#.#.[ #.#.=.",
"$.V.B.#.] [ *.:.:.$.$.&.w.d.k.k.). XwXVXBXGXSXSXSXSXSXSXSXSXSXHXGXHXSXSXSXSXSXSXSXSXGXFXvXrX X(.T.n.H.6.{ %.#.$.$.*.#.#.#.#.#.*.",
"#.:.$.#.{ .. .>.>.$.$.$.$.*.;.f.P.%X:XtXrXNXvXxXcXcXZXZXcXGXGXSXGXZXcXAXAXGXcXBXzXnXvXiXwX:X_.n.a.o.2.#.] %.#.$.$.$.$.$.$.$.#...",
"#.[ #.1.t.t.$.,.:.:.:.$.$.$.-.-.e.G.M.p.T._.:X;XuXiXyXyXbXlXvXvXvXbXvXvXyXiXuXuX1X=X&X#X#Xc.7.6.x _ 1.*.} #.#.#.-.$.#.$.#.*.$.h ",
">.B.1.*.| =.F.-.#.$.$.$.$.=.*.[ >.V.#._ c M.I.K.*X*X=X<X,X,X;X>X>X>X;X,X=X=X&X*X#XK.e.9.8.,.$.#.s j 1.$.[ $.[ [ [ [ [ [ [ #.[ d ",
"$.2.+.> @ : h _ ) ] [ #.#.$.$.} ,.>.:.[ [ 3.G.9.S.H.j.j.h.x.z.x.z.v.v.J.j.d.M.G.8.%.:.<.$.$.>.1.f k *.=.#.$.[ [ ] ] [ ] ] ] ] j ",
"z p a , - : r s d ) ] $.$.$.$.] ] #.:.=.#.#. .[ $.:.:.:.:.:.:.;.,.<.<.>.$.[ | =.) j =.1.] [ V.t.s d #.=.$.>.*.#.#.#.#.[ #.#.#.*.",
"y   ; N.U.t.' y f j  .$.,.>.>.) | | r.y.=.( f ( ] *.,.:.>.B.B.>.>.>.>.:.$. ...*.d d  .;.) ] 2.C.s s #.$.:.>.&.$.$.:.1.1.1.4.1.2.",
"d e f ..$.$.#.=.; u V.:.` &.>.z r 2.o.{ F.a d s | B.B.$.[ &.4.>.:.:.:.$.[ j f -.=.:.[ ( j [ 1.r.j u z r.1.$.$.%.#.#.#.&.$.$.#.B.",
"] ) *.2.V.>.1.1.` ] >.>.:.3.#.| , $.#.( F.| z g ..C.V.>.$.$.>.1.>.$.:.:.#.( d *.[ { { [ #.[ [ :.) d l *.>.:.%.$.$.$.$.:.:.$.$.>.",
"=.t.Z.2.>.>.B.$.C.,.[ $.=.' h D.l } ) : : ; = e l *.>.>.>.>.B.>.$.$.,.$.#.) h ] ) k ..r.C.=.] $.) j j ] #.#.[ #.[ [ [ [ %.#.#.,.",
"' =.$.] ] [ <.[ V.%.h [ ) e y g ) _ k : X : : u j #.$.>.,.>.B.$.$.#.:.>.1.#.] ] j j ( ]  ...' :.;...| [ *.;.} $.$.%.#.&.$.$.:.<.",
"d ] ] ) ) %.>.:.V.[ ] 1.j t g p #.*.=.u - +.y.) *.:.>.$.$.$.$.$.$.#.:.>.>.:.[ .. .[ ) d s d h [ *. .) |  . .] >.1.2.:.$.1.>.C.>.",
"h ) [ [ #.$.>.>.:.#.>.Z. .h z g ' #.t.> @ =.;.:.<.4.:.$.$.#.[ :.$.$.:.>.>.$.#.) *.1.#.j u s h e i a t > r a r ) ) _ ( ( ) ) ] :.",
") ( ( )  . .) ' ) [ #.[ 1.*.d @ $ y | i u D.<.>.>.:.$.:.>.$.$.1.:.$.$.>.>.$.#.[ #.$.$.-.[ [ [ #.$.$.#. . .[ $.l l k k k l ( ` $.",
"..g s d j d u r s ) h i =.2., y y u @.r.#.<.#.>.,.,.$.>.B.>.:.>.:.$.>.>.B.>.,.2.;.[ :.C.A.C.$.>.>.B.>.2.>.1.V.C.2.2.:.$.1.C.D.$."
};
